G04 #@! TF.GenerationSoftware,KiCad,Pcbnew,(5.0.1-3-g963ef8bb5)*
G04 #@! TF.CreationDate,2019-07-07T12:57:12+09:00*
G04 #@! TF.ProjectId,Edge Light Tree,45646765204C6967687420547265652E,rev?*
G04 #@! TF.SameCoordinates,Original*
G04 #@! TF.FileFunction,Other,User*
%FSLAX46Y46*%
G04 Gerber Fmt 4.6, Leading zero omitted, Abs format (unit mm)*
G04 Created by KiCad (PCBNEW (5.0.1-3-g963ef8bb5)) date 2019 July 07, Sunday 12:57:12*
%MOMM*%
%LPD*%
G01*
G04 APERTURE LIST*
%ADD10C,0.300000*%
%ADD11C,0.050000*%
G04 APERTURE END LIST*
D10*
X169174814Y-103827662D02*
X169389100Y-103899091D01*
X169746242Y-103899091D01*
X169889100Y-103827662D01*
X169960528Y-103756234D01*
X170031957Y-103613377D01*
X170031957Y-103470520D01*
X169960528Y-103327662D01*
X169889100Y-103256234D01*
X169746242Y-103184805D01*
X169460528Y-103113377D01*
X169317671Y-103041948D01*
X169246242Y-102970520D01*
X169174814Y-102827662D01*
X169174814Y-102684805D01*
X169246242Y-102541948D01*
X169317671Y-102470520D01*
X169460528Y-102399091D01*
X169817671Y-102399091D01*
X170031957Y-102470520D01*
X170674814Y-103899091D02*
X170674814Y-102399091D01*
X171317671Y-103899091D02*
X171317671Y-103113377D01*
X171246242Y-102970520D01*
X171103385Y-102899091D01*
X170889100Y-102899091D01*
X170746242Y-102970520D01*
X170674814Y-103041948D01*
X172674814Y-102899091D02*
X172674814Y-103899091D01*
X172031957Y-102899091D02*
X172031957Y-103684805D01*
X172103385Y-103827662D01*
X172246242Y-103899091D01*
X172460528Y-103899091D01*
X172603385Y-103827662D01*
X172674814Y-103756234D01*
X173389100Y-102899091D02*
X173389100Y-103899091D01*
X173389100Y-103041948D02*
X173460528Y-102970520D01*
X173603385Y-102899091D01*
X173817671Y-102899091D01*
X173960528Y-102970520D01*
X174031957Y-103113377D01*
X174031957Y-103899091D01*
X174746242Y-102899091D02*
X174746242Y-103899091D01*
X174746242Y-103041948D02*
X174817671Y-102970520D01*
X174960528Y-102899091D01*
X175174814Y-102899091D01*
X175317671Y-102970520D01*
X175389100Y-103113377D01*
X175389100Y-103899091D01*
X176317671Y-103899091D02*
X176174814Y-103827662D01*
X176103385Y-103756234D01*
X176031957Y-103613377D01*
X176031957Y-103184805D01*
X176103385Y-103041948D01*
X176174814Y-102970520D01*
X176317671Y-102899091D01*
X176531957Y-102899091D01*
X176674814Y-102970520D01*
X176746242Y-103041948D01*
X176817671Y-103184805D01*
X176817671Y-103613377D01*
X176746242Y-103756234D01*
X176674814Y-103827662D01*
X176531957Y-103899091D01*
X176317671Y-103899091D01*
X177389100Y-103827662D02*
X177531957Y-103899091D01*
X177817671Y-103899091D01*
X177960528Y-103827662D01*
X178031957Y-103684805D01*
X178031957Y-103613377D01*
X177960528Y-103470520D01*
X177817671Y-103399091D01*
X177603385Y-103399091D01*
X177460528Y-103327662D01*
X177389100Y-103184805D01*
X177389100Y-103113377D01*
X177460528Y-102970520D01*
X177603385Y-102899091D01*
X177817671Y-102899091D01*
X177960528Y-102970520D01*
X179317671Y-102899091D02*
X179317671Y-103899091D01*
X178674814Y-102899091D02*
X178674814Y-103684805D01*
X178746242Y-103827662D01*
X178889100Y-103899091D01*
X179103385Y-103899091D01*
X179246242Y-103827662D01*
X179317671Y-103756234D01*
X180031957Y-103899091D02*
X180031957Y-102399091D01*
X180174814Y-103327662D02*
X180603385Y-103899091D01*
X180603385Y-102899091D02*
X180031957Y-103470520D01*
X181817671Y-103827662D02*
X181674814Y-103899091D01*
X181389100Y-103899091D01*
X181246242Y-103827662D01*
X181174814Y-103684805D01*
X181174814Y-103113377D01*
X181246242Y-102970520D01*
X181389100Y-102899091D01*
X181674814Y-102899091D01*
X181817671Y-102970520D01*
X181889100Y-103113377D01*
X181889100Y-103256234D01*
X181174814Y-103399091D01*
X183460528Y-102399091D02*
X184317671Y-102399091D01*
X183889100Y-103899091D02*
X183889100Y-102399091D01*
X185031957Y-103899091D02*
X184889100Y-103827662D01*
X184817671Y-103756234D01*
X184746242Y-103613377D01*
X184746242Y-103184805D01*
X184817671Y-103041948D01*
X184889100Y-102970520D01*
X185031957Y-102899091D01*
X185246242Y-102899091D01*
X185389100Y-102970520D01*
X185460528Y-103041948D01*
X185531957Y-103184805D01*
X185531957Y-103613377D01*
X185460528Y-103756234D01*
X185389100Y-103827662D01*
X185246242Y-103899091D01*
X185031957Y-103899091D01*
X186174814Y-103899091D02*
X186174814Y-102399091D01*
X186317671Y-103327662D02*
X186746242Y-103899091D01*
X186746242Y-102899091D02*
X186174814Y-103470520D01*
X188031957Y-102899091D02*
X188031957Y-103899091D01*
X187389100Y-102899091D02*
X187389100Y-103684805D01*
X187460528Y-103827662D01*
X187603385Y-103899091D01*
X187817671Y-103899091D01*
X187960528Y-103827662D01*
X188031957Y-103756234D01*
X188746242Y-103899091D02*
X188746242Y-102399091D01*
X189389100Y-103899091D02*
X189389100Y-103113377D01*
X189317671Y-102970520D01*
X189174814Y-102899091D01*
X188960528Y-102899091D01*
X188817671Y-102970520D01*
X188746242Y-103041948D01*
X190103385Y-103899091D02*
X190103385Y-102899091D01*
X190103385Y-102399091D02*
X190031957Y-102470520D01*
X190103385Y-102541948D01*
X190174814Y-102470520D01*
X190103385Y-102399091D01*
X190103385Y-102541948D01*
X190817671Y-103899091D02*
X190817671Y-102899091D01*
X190817671Y-103184805D02*
X190889100Y-103041948D01*
X190960528Y-102970520D01*
X191103385Y-102899091D01*
X191246242Y-102899091D01*
X192389100Y-103899091D02*
X192389100Y-103113377D01*
X192317671Y-102970520D01*
X192174814Y-102899091D01*
X191889100Y-102899091D01*
X191746242Y-102970520D01*
X192389100Y-103827662D02*
X192246242Y-103899091D01*
X191889100Y-103899091D01*
X191746242Y-103827662D01*
X191674814Y-103684805D01*
X191674814Y-103541948D01*
X191746242Y-103399091D01*
X191889100Y-103327662D01*
X192246242Y-103327662D01*
X192389100Y-103256234D01*
D11*
G04 #@! TO.C,BT1*
X116798000Y-101796400D02*
X116798000Y-93196400D01*
X125648000Y-101796400D02*
X116798000Y-101796400D01*
X125648000Y-93196400D02*
X125648000Y-101796400D01*
X116798000Y-93196400D02*
X125648000Y-93196400D01*
G04 #@! TO.C,BT2*
X145508000Y-84596400D02*
X145508000Y-75996400D01*
X154358000Y-84596400D02*
X145508000Y-84596400D01*
X154358000Y-75996400D02*
X154358000Y-84596400D01*
X145508000Y-75996400D02*
X154358000Y-75996400D01*
G04 #@! TO.C,C1*
X131283000Y-95996400D02*
G75*
G03X131283000Y-95996400I-2750000J0D01*
G01*
G04 #@! TO.C,C2*
X149783000Y-87396400D02*
G75*
G03X149783000Y-87396400I-2750000J0D01*
G01*
G04 #@! TO.C,C3*
X136913000Y-95996400D02*
G75*
G03X136913000Y-95996400I-2750000J0D01*
G01*
G04 #@! TO.C,C4*
X159993000Y-78746400D02*
G75*
G03X159993000Y-78746400I-2750000J0D01*
G01*
G04 #@! TO.C,C5*
X142543000Y-95996400D02*
G75*
G03X142543000Y-95996400I-2750000J0D01*
G01*
G04 #@! TO.C,C6*
X149783000Y-92946400D02*
G75*
G03X149783000Y-92946400I-2750000J0D01*
G01*
G04 #@! TO.C,D1*
X202700000Y-89750000D02*
X197850000Y-89750000D01*
X202700000Y-94250000D02*
X202700000Y-89750000D01*
X197850000Y-94250000D02*
X202700000Y-94250000D01*
X197850000Y-89750000D02*
X197850000Y-94250000D01*
G04 #@! TO.C,D2*
X197850000Y-84750000D02*
X197850000Y-89250000D01*
X197850000Y-89250000D02*
X202700000Y-89250000D01*
X202700000Y-89250000D02*
X202700000Y-84750000D01*
X202700000Y-84750000D02*
X197850000Y-84750000D01*
G04 #@! TO.C,D3*
X171160000Y-84750000D02*
X166310000Y-84750000D01*
X171160000Y-89250000D02*
X171160000Y-84750000D01*
X166310000Y-89250000D02*
X171160000Y-89250000D01*
X166310000Y-84750000D02*
X166310000Y-89250000D01*
G04 #@! TO.C,D4*
X197850000Y-79750000D02*
X197850000Y-84250000D01*
X197850000Y-84250000D02*
X202700000Y-84250000D01*
X202700000Y-84250000D02*
X202700000Y-79750000D01*
X202700000Y-79750000D02*
X197850000Y-79750000D01*
G04 #@! TO.C,D5*
X171200000Y-94750000D02*
X166350000Y-94750000D01*
X171200000Y-99250000D02*
X171200000Y-94750000D01*
X166350000Y-99250000D02*
X171200000Y-99250000D01*
X166350000Y-94750000D02*
X166350000Y-99250000D01*
G04 #@! TO.C,D6*
X197850000Y-94750000D02*
X197850000Y-99250000D01*
X197850000Y-99250000D02*
X202700000Y-99250000D01*
X202700000Y-99250000D02*
X202700000Y-94750000D01*
X202700000Y-94750000D02*
X197850000Y-94750000D01*
G04 #@! TO.C,D7*
X166350000Y-79750000D02*
X166350000Y-84250000D01*
X166350000Y-84250000D02*
X171200000Y-84250000D01*
X171200000Y-84250000D02*
X171200000Y-79750000D01*
X171200000Y-79750000D02*
X166350000Y-79750000D01*
G04 #@! TO.C,D8*
X166350000Y-89750000D02*
X166350000Y-94250000D01*
X166350000Y-94250000D02*
X171200000Y-94250000D01*
X171200000Y-94250000D02*
X171200000Y-89750000D01*
X171200000Y-89750000D02*
X166350000Y-89750000D01*
G04 #@! TO.C,M1*
X149823000Y-89436400D02*
X149823000Y-93836400D01*
X149823000Y-93836400D02*
X154973000Y-93836400D01*
X154973000Y-93836400D02*
X154973000Y-89436400D01*
X154973000Y-89436400D02*
X149823000Y-89436400D01*
G04 #@! TO.C,Q1*
X155283000Y-89386400D02*
X149823000Y-89386400D01*
X155283000Y-89386400D02*
X155283000Y-84646400D01*
X149823000Y-84646400D02*
X149823000Y-89386400D01*
X149823000Y-84646400D02*
X155283000Y-84646400D01*
G04 #@! TO.C,Q2*
X136713000Y-98796000D02*
X142173000Y-98796000D01*
X136713000Y-98796000D02*
X136713000Y-103536000D01*
X142173000Y-103536000D02*
X142173000Y-98796000D01*
X142173000Y-103536000D02*
X136713000Y-103536000D01*
G04 #@! TO.C,Q3*
X136663000Y-103536000D02*
X131203000Y-103536000D01*
X136663000Y-103536000D02*
X136663000Y-98796000D01*
X131203000Y-98796000D02*
X131203000Y-103536000D01*
X131203000Y-98796000D02*
X136663000Y-98796000D01*
G04 #@! TO.C,Q4*
X160033000Y-75996400D02*
X165493000Y-75996400D01*
X160033000Y-75996400D02*
X160033000Y-80736400D01*
X165493000Y-80736400D02*
X165493000Y-75996400D01*
X165493000Y-80736400D02*
X160033000Y-80736400D01*
G04 #@! TO.C,Q5*
X131153000Y-103536000D02*
X125693000Y-103536000D01*
X131153000Y-103536000D02*
X131153000Y-98796000D01*
X125693000Y-98796000D02*
X125693000Y-103536000D01*
X125693000Y-98796000D02*
X131153000Y-98796000D01*
G04 #@! TO.C,Q6*
X142583000Y-95746400D02*
X148043000Y-95746400D01*
X142583000Y-95746400D02*
X142583000Y-100486400D01*
X148043000Y-100486400D02*
X148043000Y-95746400D01*
X148043000Y-100486400D02*
X142583000Y-100486400D01*
G04 #@! TO.C,R1*
X116763000Y-101846000D02*
X116763000Y-103946000D01*
X116763000Y-103946000D02*
X123743000Y-103946000D01*
X123743000Y-103946000D02*
X123743000Y-101846000D01*
X123743000Y-101846000D02*
X116763000Y-101846000D01*
G04 #@! TO.C,R2*
X135853000Y-82446400D02*
X126333000Y-82446400D01*
X135853000Y-84546400D02*
X135853000Y-82446400D01*
X126333000Y-84546400D02*
X135853000Y-84546400D01*
X126333000Y-82446400D02*
X126333000Y-84546400D01*
G04 #@! TO.C,R3*
X116763000Y-91046400D02*
X116763000Y-93146400D01*
X116763000Y-93146400D02*
X126283000Y-93146400D01*
X126283000Y-93146400D02*
X126283000Y-91046400D01*
X126283000Y-91046400D02*
X116763000Y-91046400D01*
G04 #@! TO.C,R4*
X135853000Y-80296400D02*
X126333000Y-80296400D01*
X135853000Y-82396400D02*
X135853000Y-80296400D01*
X126333000Y-82396400D02*
X135853000Y-82396400D01*
X126333000Y-80296400D02*
X126333000Y-82396400D01*
G04 #@! TO.C,R5*
X116763000Y-88896400D02*
X116763000Y-90996400D01*
X116763000Y-90996400D02*
X126283000Y-90996400D01*
X126283000Y-90996400D02*
X126283000Y-88896400D01*
X126283000Y-88896400D02*
X116763000Y-88896400D01*
G04 #@! TO.C,R6*
X145423000Y-78146400D02*
X135903000Y-78146400D01*
X145423000Y-80246400D02*
X145423000Y-78146400D01*
X135903000Y-80246400D02*
X145423000Y-80246400D01*
X135903000Y-78146400D02*
X135903000Y-80246400D01*
G04 #@! TO.C,R7*
X135903000Y-75996400D02*
X135903000Y-78096400D01*
X135903000Y-78096400D02*
X145423000Y-78096400D01*
X145423000Y-78096400D02*
X145423000Y-75996400D01*
X145423000Y-75996400D02*
X135903000Y-75996400D01*
G04 #@! TO.C,R8*
X126283000Y-75996400D02*
X116763000Y-75996400D01*
X126283000Y-78096400D02*
X126283000Y-75996400D01*
X116763000Y-78096400D02*
X126283000Y-78096400D01*
X116763000Y-75996400D02*
X116763000Y-78096400D01*
G04 #@! TO.C,R9*
X116763000Y-86746400D02*
X116763000Y-88846400D01*
X116763000Y-88846400D02*
X126283000Y-88846400D01*
X126283000Y-88846400D02*
X126283000Y-86746400D01*
X126283000Y-86746400D02*
X116763000Y-86746400D01*
G04 #@! TO.C,R10*
X116763000Y-84596400D02*
X116763000Y-86696400D01*
X116763000Y-86696400D02*
X126283000Y-86696400D01*
X126283000Y-86696400D02*
X126283000Y-84596400D01*
X126283000Y-84596400D02*
X116763000Y-84596400D01*
G04 #@! TO.C,R11*
X126283000Y-82446400D02*
X116763000Y-82446400D01*
X126283000Y-84546400D02*
X126283000Y-82446400D01*
X116763000Y-84546400D02*
X126283000Y-84546400D01*
X116763000Y-82446400D02*
X116763000Y-84546400D01*
G04 #@! TO.C,R12*
X126333000Y-78146400D02*
X126333000Y-80246400D01*
X126333000Y-80246400D02*
X135853000Y-80246400D01*
X135853000Y-80246400D02*
X135853000Y-78146400D01*
X135853000Y-78146400D02*
X126333000Y-78146400D01*
G04 #@! TO.C,R13*
X126283000Y-80296400D02*
X116763000Y-80296400D01*
X126283000Y-82396400D02*
X126283000Y-80296400D01*
X116763000Y-82396400D02*
X126283000Y-82396400D01*
X116763000Y-80296400D02*
X116763000Y-82396400D01*
G04 #@! TO.C,R14*
X126333000Y-75996400D02*
X126333000Y-78096400D01*
X126333000Y-78096400D02*
X135853000Y-78096400D01*
X135853000Y-78096400D02*
X135853000Y-75996400D01*
X135853000Y-75996400D02*
X126333000Y-75996400D01*
G04 #@! TO.C,R15*
X126283000Y-78146400D02*
X116763000Y-78146400D01*
X126283000Y-80246400D02*
X126283000Y-78146400D01*
X116763000Y-80246400D02*
X126283000Y-80246400D01*
X116763000Y-78146400D02*
X116763000Y-80246400D01*
G04 #@! TO.C,SW1*
X135298000Y-84596400D02*
X144148000Y-84596400D01*
X144148000Y-84596400D02*
X144148000Y-93196400D01*
X144148000Y-93196400D02*
X135298000Y-93196400D01*
X135298000Y-93196400D02*
X135298000Y-84596400D01*
G04 #@! TO.C,SW2*
X126368000Y-84596400D02*
X135218000Y-84596400D01*
X135218000Y-84596400D02*
X135218000Y-93196400D01*
X135218000Y-93196400D02*
X126368000Y-93196400D01*
X126368000Y-93196400D02*
X126368000Y-84596400D01*
G04 #@! TD*
M02*
