G04 #@! TF.GenerationSoftware,KiCad,Pcbnew,(5.0.1-3-g963ef8bb5)*
G04 #@! TF.CreationDate,2019-07-07T12:57:12+09:00*
G04 #@! TF.ProjectId,Edge Light Tree,45646765204C6967687420547265652E,rev?*
G04 #@! TF.SameCoordinates,Original*
G04 #@! TF.FileFunction,Legend,Top*
G04 #@! TF.FilePolarity,Positive*
%FSLAX46Y46*%
G04 Gerber Fmt 4.6, Leading zero omitted, Abs format (unit mm)*
G04 Created by KiCad (PCBNEW (5.0.1-3-g963ef8bb5)) date 2019 July 07, Sunday 12:57:12*
%MOMM*%
%LPD*%
G01*
G04 APERTURE LIST*
%ADD10C,0.120000*%
%ADD11C,0.150000*%
G04 APERTURE END LIST*
D10*
G04 #@! TO.C,BT1*
X125268000Y-101576400D02*
X125268000Y-96746400D01*
X117138000Y-96746400D02*
X117138000Y-101576400D01*
X117138000Y-94836400D02*
X125268000Y-94836400D01*
X118408000Y-94836400D02*
X118408000Y-93446400D01*
X123998000Y-94836400D02*
X123998000Y-93446400D01*
X118408000Y-93446400D02*
X123998000Y-93446400D01*
X117138000Y-94836400D02*
X117138000Y-96746400D01*
X125268000Y-94836400D02*
X125268000Y-96746400D01*
X118408000Y-93696400D02*
X123998000Y-93696400D01*
X118408000Y-94586400D02*
X123998000Y-94586400D01*
X121588000Y-101316400D02*
X121588000Y-101576400D01*
X120818000Y-101316400D02*
X121588000Y-101316400D01*
X120818000Y-101576400D02*
X120818000Y-101316400D01*
X120818000Y-101576400D02*
X117138000Y-101576400D01*
X121588000Y-101576400D02*
X125268000Y-101576400D01*
X118098000Y-94546400D02*
X116798000Y-94546400D01*
X116798000Y-94546400D02*
X116798000Y-96746400D01*
G04 #@! TO.C,BT2*
X153978000Y-84376400D02*
X153978000Y-79546400D01*
X145848000Y-79546400D02*
X145848000Y-84376400D01*
X145848000Y-77636400D02*
X153978000Y-77636400D01*
X147118000Y-77636400D02*
X147118000Y-76246400D01*
X152708000Y-77636400D02*
X152708000Y-76246400D01*
X147118000Y-76246400D02*
X152708000Y-76246400D01*
X145848000Y-77636400D02*
X145848000Y-79546400D01*
X153978000Y-77636400D02*
X153978000Y-79546400D01*
X147118000Y-76496400D02*
X152708000Y-76496400D01*
X147118000Y-77386400D02*
X152708000Y-77386400D01*
X150298000Y-84116400D02*
X150298000Y-84376400D01*
X149528000Y-84116400D02*
X150298000Y-84116400D01*
X149528000Y-84376400D02*
X149528000Y-84116400D01*
X149528000Y-84376400D02*
X145848000Y-84376400D01*
X150298000Y-84376400D02*
X153978000Y-84376400D01*
X146808000Y-77346400D02*
X145508000Y-77346400D01*
X145508000Y-77346400D02*
X145508000Y-79546400D01*
G04 #@! TO.C,C1*
X125978225Y-94271400D02*
X125978225Y-94771400D01*
X125728225Y-94521400D02*
X126228225Y-94521400D01*
X131134000Y-95712400D02*
X131134000Y-96280400D01*
X131094000Y-95478400D02*
X131094000Y-96514400D01*
X131054000Y-95319400D02*
X131054000Y-96673400D01*
X131014000Y-95191400D02*
X131014000Y-96801400D01*
X130974000Y-95081400D02*
X130974000Y-96911400D01*
X130934000Y-94985400D02*
X130934000Y-97007400D01*
X130894000Y-94898400D02*
X130894000Y-97094400D01*
X130854000Y-94818400D02*
X130854000Y-97174400D01*
X130814000Y-94745400D02*
X130814000Y-97247400D01*
X130774000Y-94677400D02*
X130774000Y-97315400D01*
X130734000Y-94613400D02*
X130734000Y-97379400D01*
X130694000Y-94553400D02*
X130694000Y-97439400D01*
X130654000Y-94496400D02*
X130654000Y-97496400D01*
X130614000Y-94442400D02*
X130614000Y-97550400D01*
X130574000Y-94391400D02*
X130574000Y-97601400D01*
X130534000Y-97036400D02*
X130534000Y-97649400D01*
X130534000Y-94343400D02*
X130534000Y-94956400D01*
X130494000Y-97036400D02*
X130494000Y-97695400D01*
X130494000Y-94297400D02*
X130494000Y-94956400D01*
X130454000Y-97036400D02*
X130454000Y-97739400D01*
X130454000Y-94253400D02*
X130454000Y-94956400D01*
X130414000Y-97036400D02*
X130414000Y-97781400D01*
X130414000Y-94211400D02*
X130414000Y-94956400D01*
X130374000Y-97036400D02*
X130374000Y-97822400D01*
X130374000Y-94170400D02*
X130374000Y-94956400D01*
X130334000Y-97036400D02*
X130334000Y-97860400D01*
X130334000Y-94132400D02*
X130334000Y-94956400D01*
X130294000Y-97036400D02*
X130294000Y-97897400D01*
X130294000Y-94095400D02*
X130294000Y-94956400D01*
X130254000Y-97036400D02*
X130254000Y-97933400D01*
X130254000Y-94059400D02*
X130254000Y-94956400D01*
X130214000Y-97036400D02*
X130214000Y-97967400D01*
X130214000Y-94025400D02*
X130214000Y-94956400D01*
X130174000Y-97036400D02*
X130174000Y-98000400D01*
X130174000Y-93992400D02*
X130174000Y-94956400D01*
X130134000Y-97036400D02*
X130134000Y-98031400D01*
X130134000Y-93961400D02*
X130134000Y-94956400D01*
X130094000Y-97036400D02*
X130094000Y-98061400D01*
X130094000Y-93931400D02*
X130094000Y-94956400D01*
X130054000Y-97036400D02*
X130054000Y-98091400D01*
X130054000Y-93901400D02*
X130054000Y-94956400D01*
X130014000Y-97036400D02*
X130014000Y-98118400D01*
X130014000Y-93874400D02*
X130014000Y-94956400D01*
X129974000Y-97036400D02*
X129974000Y-98145400D01*
X129974000Y-93847400D02*
X129974000Y-94956400D01*
X129934000Y-97036400D02*
X129934000Y-98171400D01*
X129934000Y-93821400D02*
X129934000Y-94956400D01*
X129894000Y-97036400D02*
X129894000Y-98196400D01*
X129894000Y-93796400D02*
X129894000Y-94956400D01*
X129854000Y-97036400D02*
X129854000Y-98220400D01*
X129854000Y-93772400D02*
X129854000Y-94956400D01*
X129814000Y-97036400D02*
X129814000Y-98243400D01*
X129814000Y-93749400D02*
X129814000Y-94956400D01*
X129774000Y-97036400D02*
X129774000Y-98264400D01*
X129774000Y-93728400D02*
X129774000Y-94956400D01*
X129734000Y-97036400D02*
X129734000Y-98286400D01*
X129734000Y-93706400D02*
X129734000Y-94956400D01*
X129694000Y-97036400D02*
X129694000Y-98306400D01*
X129694000Y-93686400D02*
X129694000Y-94956400D01*
X129654000Y-97036400D02*
X129654000Y-98325400D01*
X129654000Y-93667400D02*
X129654000Y-94956400D01*
X129614000Y-97036400D02*
X129614000Y-98344400D01*
X129614000Y-93648400D02*
X129614000Y-94956400D01*
X129574000Y-97036400D02*
X129574000Y-98361400D01*
X129574000Y-93631400D02*
X129574000Y-94956400D01*
X129534000Y-97036400D02*
X129534000Y-98378400D01*
X129534000Y-93614400D02*
X129534000Y-94956400D01*
X129494000Y-97036400D02*
X129494000Y-98394400D01*
X129494000Y-93598400D02*
X129494000Y-94956400D01*
X129454000Y-97036400D02*
X129454000Y-98410400D01*
X129454000Y-93582400D02*
X129454000Y-94956400D01*
X129414000Y-97036400D02*
X129414000Y-98424400D01*
X129414000Y-93568400D02*
X129414000Y-94956400D01*
X129374000Y-97036400D02*
X129374000Y-98438400D01*
X129374000Y-93554400D02*
X129374000Y-94956400D01*
X129334000Y-97036400D02*
X129334000Y-98451400D01*
X129334000Y-93541400D02*
X129334000Y-94956400D01*
X129294000Y-97036400D02*
X129294000Y-98464400D01*
X129294000Y-93528400D02*
X129294000Y-94956400D01*
X129254000Y-97036400D02*
X129254000Y-98476400D01*
X129254000Y-93516400D02*
X129254000Y-94956400D01*
X129213000Y-97036400D02*
X129213000Y-98487400D01*
X129213000Y-93505400D02*
X129213000Y-94956400D01*
X129173000Y-97036400D02*
X129173000Y-98497400D01*
X129173000Y-93495400D02*
X129173000Y-94956400D01*
X129133000Y-97036400D02*
X129133000Y-98507400D01*
X129133000Y-93485400D02*
X129133000Y-94956400D01*
X129093000Y-97036400D02*
X129093000Y-98516400D01*
X129093000Y-93476400D02*
X129093000Y-94956400D01*
X129053000Y-97036400D02*
X129053000Y-98524400D01*
X129053000Y-93468400D02*
X129053000Y-94956400D01*
X129013000Y-97036400D02*
X129013000Y-98532400D01*
X129013000Y-93460400D02*
X129013000Y-94956400D01*
X128973000Y-97036400D02*
X128973000Y-98539400D01*
X128973000Y-93453400D02*
X128973000Y-94956400D01*
X128933000Y-97036400D02*
X128933000Y-98546400D01*
X128933000Y-93446400D02*
X128933000Y-94956400D01*
X128893000Y-97036400D02*
X128893000Y-98552400D01*
X128893000Y-93440400D02*
X128893000Y-94956400D01*
X128853000Y-97036400D02*
X128853000Y-98557400D01*
X128853000Y-93435400D02*
X128853000Y-94956400D01*
X128813000Y-97036400D02*
X128813000Y-98561400D01*
X128813000Y-93431400D02*
X128813000Y-94956400D01*
X128773000Y-97036400D02*
X128773000Y-98565400D01*
X128773000Y-93427400D02*
X128773000Y-94956400D01*
X128733000Y-97036400D02*
X128733000Y-98569400D01*
X128733000Y-93423400D02*
X128733000Y-94956400D01*
X128693000Y-97036400D02*
X128693000Y-98572400D01*
X128693000Y-93420400D02*
X128693000Y-94956400D01*
X128653000Y-97036400D02*
X128653000Y-98574400D01*
X128653000Y-93418400D02*
X128653000Y-94956400D01*
X128613000Y-97036400D02*
X128613000Y-98575400D01*
X128613000Y-93417400D02*
X128613000Y-94956400D01*
X128573000Y-93416400D02*
X128573000Y-94956400D01*
X128573000Y-97036400D02*
X128573000Y-98576400D01*
X128533000Y-93416400D02*
X128533000Y-94956400D01*
X128533000Y-97036400D02*
X128533000Y-98576400D01*
X131153000Y-95996400D02*
G75*
G03X131153000Y-95996400I-2620000J0D01*
G01*
G04 #@! TO.C,C2*
X149653000Y-87396400D02*
G75*
G03X149653000Y-87396400I-2620000J0D01*
G01*
X147033000Y-88436400D02*
X147033000Y-89976400D01*
X147033000Y-84816400D02*
X147033000Y-86356400D01*
X147073000Y-88436400D02*
X147073000Y-89976400D01*
X147073000Y-84816400D02*
X147073000Y-86356400D01*
X147113000Y-84817400D02*
X147113000Y-86356400D01*
X147113000Y-88436400D02*
X147113000Y-89975400D01*
X147153000Y-84818400D02*
X147153000Y-86356400D01*
X147153000Y-88436400D02*
X147153000Y-89974400D01*
X147193000Y-84820400D02*
X147193000Y-86356400D01*
X147193000Y-88436400D02*
X147193000Y-89972400D01*
X147233000Y-84823400D02*
X147233000Y-86356400D01*
X147233000Y-88436400D02*
X147233000Y-89969400D01*
X147273000Y-84827400D02*
X147273000Y-86356400D01*
X147273000Y-88436400D02*
X147273000Y-89965400D01*
X147313000Y-84831400D02*
X147313000Y-86356400D01*
X147313000Y-88436400D02*
X147313000Y-89961400D01*
X147353000Y-84835400D02*
X147353000Y-86356400D01*
X147353000Y-88436400D02*
X147353000Y-89957400D01*
X147393000Y-84840400D02*
X147393000Y-86356400D01*
X147393000Y-88436400D02*
X147393000Y-89952400D01*
X147433000Y-84846400D02*
X147433000Y-86356400D01*
X147433000Y-88436400D02*
X147433000Y-89946400D01*
X147473000Y-84853400D02*
X147473000Y-86356400D01*
X147473000Y-88436400D02*
X147473000Y-89939400D01*
X147513000Y-84860400D02*
X147513000Y-86356400D01*
X147513000Y-88436400D02*
X147513000Y-89932400D01*
X147553000Y-84868400D02*
X147553000Y-86356400D01*
X147553000Y-88436400D02*
X147553000Y-89924400D01*
X147593000Y-84876400D02*
X147593000Y-86356400D01*
X147593000Y-88436400D02*
X147593000Y-89916400D01*
X147633000Y-84885400D02*
X147633000Y-86356400D01*
X147633000Y-88436400D02*
X147633000Y-89907400D01*
X147673000Y-84895400D02*
X147673000Y-86356400D01*
X147673000Y-88436400D02*
X147673000Y-89897400D01*
X147713000Y-84905400D02*
X147713000Y-86356400D01*
X147713000Y-88436400D02*
X147713000Y-89887400D01*
X147754000Y-84916400D02*
X147754000Y-86356400D01*
X147754000Y-88436400D02*
X147754000Y-89876400D01*
X147794000Y-84928400D02*
X147794000Y-86356400D01*
X147794000Y-88436400D02*
X147794000Y-89864400D01*
X147834000Y-84941400D02*
X147834000Y-86356400D01*
X147834000Y-88436400D02*
X147834000Y-89851400D01*
X147874000Y-84954400D02*
X147874000Y-86356400D01*
X147874000Y-88436400D02*
X147874000Y-89838400D01*
X147914000Y-84968400D02*
X147914000Y-86356400D01*
X147914000Y-88436400D02*
X147914000Y-89824400D01*
X147954000Y-84982400D02*
X147954000Y-86356400D01*
X147954000Y-88436400D02*
X147954000Y-89810400D01*
X147994000Y-84998400D02*
X147994000Y-86356400D01*
X147994000Y-88436400D02*
X147994000Y-89794400D01*
X148034000Y-85014400D02*
X148034000Y-86356400D01*
X148034000Y-88436400D02*
X148034000Y-89778400D01*
X148074000Y-85031400D02*
X148074000Y-86356400D01*
X148074000Y-88436400D02*
X148074000Y-89761400D01*
X148114000Y-85048400D02*
X148114000Y-86356400D01*
X148114000Y-88436400D02*
X148114000Y-89744400D01*
X148154000Y-85067400D02*
X148154000Y-86356400D01*
X148154000Y-88436400D02*
X148154000Y-89725400D01*
X148194000Y-85086400D02*
X148194000Y-86356400D01*
X148194000Y-88436400D02*
X148194000Y-89706400D01*
X148234000Y-85106400D02*
X148234000Y-86356400D01*
X148234000Y-88436400D02*
X148234000Y-89686400D01*
X148274000Y-85128400D02*
X148274000Y-86356400D01*
X148274000Y-88436400D02*
X148274000Y-89664400D01*
X148314000Y-85149400D02*
X148314000Y-86356400D01*
X148314000Y-88436400D02*
X148314000Y-89643400D01*
X148354000Y-85172400D02*
X148354000Y-86356400D01*
X148354000Y-88436400D02*
X148354000Y-89620400D01*
X148394000Y-85196400D02*
X148394000Y-86356400D01*
X148394000Y-88436400D02*
X148394000Y-89596400D01*
X148434000Y-85221400D02*
X148434000Y-86356400D01*
X148434000Y-88436400D02*
X148434000Y-89571400D01*
X148474000Y-85247400D02*
X148474000Y-86356400D01*
X148474000Y-88436400D02*
X148474000Y-89545400D01*
X148514000Y-85274400D02*
X148514000Y-86356400D01*
X148514000Y-88436400D02*
X148514000Y-89518400D01*
X148554000Y-85301400D02*
X148554000Y-86356400D01*
X148554000Y-88436400D02*
X148554000Y-89491400D01*
X148594000Y-85331400D02*
X148594000Y-86356400D01*
X148594000Y-88436400D02*
X148594000Y-89461400D01*
X148634000Y-85361400D02*
X148634000Y-86356400D01*
X148634000Y-88436400D02*
X148634000Y-89431400D01*
X148674000Y-85392400D02*
X148674000Y-86356400D01*
X148674000Y-88436400D02*
X148674000Y-89400400D01*
X148714000Y-85425400D02*
X148714000Y-86356400D01*
X148714000Y-88436400D02*
X148714000Y-89367400D01*
X148754000Y-85459400D02*
X148754000Y-86356400D01*
X148754000Y-88436400D02*
X148754000Y-89333400D01*
X148794000Y-85495400D02*
X148794000Y-86356400D01*
X148794000Y-88436400D02*
X148794000Y-89297400D01*
X148834000Y-85532400D02*
X148834000Y-86356400D01*
X148834000Y-88436400D02*
X148834000Y-89260400D01*
X148874000Y-85570400D02*
X148874000Y-86356400D01*
X148874000Y-88436400D02*
X148874000Y-89222400D01*
X148914000Y-85611400D02*
X148914000Y-86356400D01*
X148914000Y-88436400D02*
X148914000Y-89181400D01*
X148954000Y-85653400D02*
X148954000Y-86356400D01*
X148954000Y-88436400D02*
X148954000Y-89139400D01*
X148994000Y-85697400D02*
X148994000Y-86356400D01*
X148994000Y-88436400D02*
X148994000Y-89095400D01*
X149034000Y-85743400D02*
X149034000Y-86356400D01*
X149034000Y-88436400D02*
X149034000Y-89049400D01*
X149074000Y-85791400D02*
X149074000Y-89001400D01*
X149114000Y-85842400D02*
X149114000Y-88950400D01*
X149154000Y-85896400D02*
X149154000Y-88896400D01*
X149194000Y-85953400D02*
X149194000Y-88839400D01*
X149234000Y-86013400D02*
X149234000Y-88779400D01*
X149274000Y-86077400D02*
X149274000Y-88715400D01*
X149314000Y-86145400D02*
X149314000Y-88647400D01*
X149354000Y-86218400D02*
X149354000Y-88574400D01*
X149394000Y-86298400D02*
X149394000Y-88494400D01*
X149434000Y-86385400D02*
X149434000Y-88407400D01*
X149474000Y-86481400D02*
X149474000Y-88311400D01*
X149514000Y-86591400D02*
X149514000Y-88201400D01*
X149554000Y-86719400D02*
X149554000Y-88073400D01*
X149594000Y-86878400D02*
X149594000Y-87914400D01*
X149634000Y-87112400D02*
X149634000Y-87680400D01*
X144228225Y-85921400D02*
X144728225Y-85921400D01*
X144478225Y-85671400D02*
X144478225Y-86171400D01*
G04 #@! TO.C,C3*
X136783000Y-95996400D02*
G75*
G03X136783000Y-95996400I-2620000J0D01*
G01*
X134163000Y-97036400D02*
X134163000Y-98576400D01*
X134163000Y-93416400D02*
X134163000Y-94956400D01*
X134203000Y-97036400D02*
X134203000Y-98576400D01*
X134203000Y-93416400D02*
X134203000Y-94956400D01*
X134243000Y-93417400D02*
X134243000Y-94956400D01*
X134243000Y-97036400D02*
X134243000Y-98575400D01*
X134283000Y-93418400D02*
X134283000Y-94956400D01*
X134283000Y-97036400D02*
X134283000Y-98574400D01*
X134323000Y-93420400D02*
X134323000Y-94956400D01*
X134323000Y-97036400D02*
X134323000Y-98572400D01*
X134363000Y-93423400D02*
X134363000Y-94956400D01*
X134363000Y-97036400D02*
X134363000Y-98569400D01*
X134403000Y-93427400D02*
X134403000Y-94956400D01*
X134403000Y-97036400D02*
X134403000Y-98565400D01*
X134443000Y-93431400D02*
X134443000Y-94956400D01*
X134443000Y-97036400D02*
X134443000Y-98561400D01*
X134483000Y-93435400D02*
X134483000Y-94956400D01*
X134483000Y-97036400D02*
X134483000Y-98557400D01*
X134523000Y-93440400D02*
X134523000Y-94956400D01*
X134523000Y-97036400D02*
X134523000Y-98552400D01*
X134563000Y-93446400D02*
X134563000Y-94956400D01*
X134563000Y-97036400D02*
X134563000Y-98546400D01*
X134603000Y-93453400D02*
X134603000Y-94956400D01*
X134603000Y-97036400D02*
X134603000Y-98539400D01*
X134643000Y-93460400D02*
X134643000Y-94956400D01*
X134643000Y-97036400D02*
X134643000Y-98532400D01*
X134683000Y-93468400D02*
X134683000Y-94956400D01*
X134683000Y-97036400D02*
X134683000Y-98524400D01*
X134723000Y-93476400D02*
X134723000Y-94956400D01*
X134723000Y-97036400D02*
X134723000Y-98516400D01*
X134763000Y-93485400D02*
X134763000Y-94956400D01*
X134763000Y-97036400D02*
X134763000Y-98507400D01*
X134803000Y-93495400D02*
X134803000Y-94956400D01*
X134803000Y-97036400D02*
X134803000Y-98497400D01*
X134843000Y-93505400D02*
X134843000Y-94956400D01*
X134843000Y-97036400D02*
X134843000Y-98487400D01*
X134884000Y-93516400D02*
X134884000Y-94956400D01*
X134884000Y-97036400D02*
X134884000Y-98476400D01*
X134924000Y-93528400D02*
X134924000Y-94956400D01*
X134924000Y-97036400D02*
X134924000Y-98464400D01*
X134964000Y-93541400D02*
X134964000Y-94956400D01*
X134964000Y-97036400D02*
X134964000Y-98451400D01*
X135004000Y-93554400D02*
X135004000Y-94956400D01*
X135004000Y-97036400D02*
X135004000Y-98438400D01*
X135044000Y-93568400D02*
X135044000Y-94956400D01*
X135044000Y-97036400D02*
X135044000Y-98424400D01*
X135084000Y-93582400D02*
X135084000Y-94956400D01*
X135084000Y-97036400D02*
X135084000Y-98410400D01*
X135124000Y-93598400D02*
X135124000Y-94956400D01*
X135124000Y-97036400D02*
X135124000Y-98394400D01*
X135164000Y-93614400D02*
X135164000Y-94956400D01*
X135164000Y-97036400D02*
X135164000Y-98378400D01*
X135204000Y-93631400D02*
X135204000Y-94956400D01*
X135204000Y-97036400D02*
X135204000Y-98361400D01*
X135244000Y-93648400D02*
X135244000Y-94956400D01*
X135244000Y-97036400D02*
X135244000Y-98344400D01*
X135284000Y-93667400D02*
X135284000Y-94956400D01*
X135284000Y-97036400D02*
X135284000Y-98325400D01*
X135324000Y-93686400D02*
X135324000Y-94956400D01*
X135324000Y-97036400D02*
X135324000Y-98306400D01*
X135364000Y-93706400D02*
X135364000Y-94956400D01*
X135364000Y-97036400D02*
X135364000Y-98286400D01*
X135404000Y-93728400D02*
X135404000Y-94956400D01*
X135404000Y-97036400D02*
X135404000Y-98264400D01*
X135444000Y-93749400D02*
X135444000Y-94956400D01*
X135444000Y-97036400D02*
X135444000Y-98243400D01*
X135484000Y-93772400D02*
X135484000Y-94956400D01*
X135484000Y-97036400D02*
X135484000Y-98220400D01*
X135524000Y-93796400D02*
X135524000Y-94956400D01*
X135524000Y-97036400D02*
X135524000Y-98196400D01*
X135564000Y-93821400D02*
X135564000Y-94956400D01*
X135564000Y-97036400D02*
X135564000Y-98171400D01*
X135604000Y-93847400D02*
X135604000Y-94956400D01*
X135604000Y-97036400D02*
X135604000Y-98145400D01*
X135644000Y-93874400D02*
X135644000Y-94956400D01*
X135644000Y-97036400D02*
X135644000Y-98118400D01*
X135684000Y-93901400D02*
X135684000Y-94956400D01*
X135684000Y-97036400D02*
X135684000Y-98091400D01*
X135724000Y-93931400D02*
X135724000Y-94956400D01*
X135724000Y-97036400D02*
X135724000Y-98061400D01*
X135764000Y-93961400D02*
X135764000Y-94956400D01*
X135764000Y-97036400D02*
X135764000Y-98031400D01*
X135804000Y-93992400D02*
X135804000Y-94956400D01*
X135804000Y-97036400D02*
X135804000Y-98000400D01*
X135844000Y-94025400D02*
X135844000Y-94956400D01*
X135844000Y-97036400D02*
X135844000Y-97967400D01*
X135884000Y-94059400D02*
X135884000Y-94956400D01*
X135884000Y-97036400D02*
X135884000Y-97933400D01*
X135924000Y-94095400D02*
X135924000Y-94956400D01*
X135924000Y-97036400D02*
X135924000Y-97897400D01*
X135964000Y-94132400D02*
X135964000Y-94956400D01*
X135964000Y-97036400D02*
X135964000Y-97860400D01*
X136004000Y-94170400D02*
X136004000Y-94956400D01*
X136004000Y-97036400D02*
X136004000Y-97822400D01*
X136044000Y-94211400D02*
X136044000Y-94956400D01*
X136044000Y-97036400D02*
X136044000Y-97781400D01*
X136084000Y-94253400D02*
X136084000Y-94956400D01*
X136084000Y-97036400D02*
X136084000Y-97739400D01*
X136124000Y-94297400D02*
X136124000Y-94956400D01*
X136124000Y-97036400D02*
X136124000Y-97695400D01*
X136164000Y-94343400D02*
X136164000Y-94956400D01*
X136164000Y-97036400D02*
X136164000Y-97649400D01*
X136204000Y-94391400D02*
X136204000Y-97601400D01*
X136244000Y-94442400D02*
X136244000Y-97550400D01*
X136284000Y-94496400D02*
X136284000Y-97496400D01*
X136324000Y-94553400D02*
X136324000Y-97439400D01*
X136364000Y-94613400D02*
X136364000Y-97379400D01*
X136404000Y-94677400D02*
X136404000Y-97315400D01*
X136444000Y-94745400D02*
X136444000Y-97247400D01*
X136484000Y-94818400D02*
X136484000Y-97174400D01*
X136524000Y-94898400D02*
X136524000Y-97094400D01*
X136564000Y-94985400D02*
X136564000Y-97007400D01*
X136604000Y-95081400D02*
X136604000Y-96911400D01*
X136644000Y-95191400D02*
X136644000Y-96801400D01*
X136684000Y-95319400D02*
X136684000Y-96673400D01*
X136724000Y-95478400D02*
X136724000Y-96514400D01*
X136764000Y-95712400D02*
X136764000Y-96280400D01*
X131358225Y-94521400D02*
X131858225Y-94521400D01*
X131608225Y-94271400D02*
X131608225Y-94771400D01*
G04 #@! TO.C,C4*
X154688225Y-77021400D02*
X154688225Y-77521400D01*
X154438225Y-77271400D02*
X154938225Y-77271400D01*
X159844000Y-78462400D02*
X159844000Y-79030400D01*
X159804000Y-78228400D02*
X159804000Y-79264400D01*
X159764000Y-78069400D02*
X159764000Y-79423400D01*
X159724000Y-77941400D02*
X159724000Y-79551400D01*
X159684000Y-77831400D02*
X159684000Y-79661400D01*
X159644000Y-77735400D02*
X159644000Y-79757400D01*
X159604000Y-77648400D02*
X159604000Y-79844400D01*
X159564000Y-77568400D02*
X159564000Y-79924400D01*
X159524000Y-77495400D02*
X159524000Y-79997400D01*
X159484000Y-77427400D02*
X159484000Y-80065400D01*
X159444000Y-77363400D02*
X159444000Y-80129400D01*
X159404000Y-77303400D02*
X159404000Y-80189400D01*
X159364000Y-77246400D02*
X159364000Y-80246400D01*
X159324000Y-77192400D02*
X159324000Y-80300400D01*
X159284000Y-77141400D02*
X159284000Y-80351400D01*
X159244000Y-79786400D02*
X159244000Y-80399400D01*
X159244000Y-77093400D02*
X159244000Y-77706400D01*
X159204000Y-79786400D02*
X159204000Y-80445400D01*
X159204000Y-77047400D02*
X159204000Y-77706400D01*
X159164000Y-79786400D02*
X159164000Y-80489400D01*
X159164000Y-77003400D02*
X159164000Y-77706400D01*
X159124000Y-79786400D02*
X159124000Y-80531400D01*
X159124000Y-76961400D02*
X159124000Y-77706400D01*
X159084000Y-79786400D02*
X159084000Y-80572400D01*
X159084000Y-76920400D02*
X159084000Y-77706400D01*
X159044000Y-79786400D02*
X159044000Y-80610400D01*
X159044000Y-76882400D02*
X159044000Y-77706400D01*
X159004000Y-79786400D02*
X159004000Y-80647400D01*
X159004000Y-76845400D02*
X159004000Y-77706400D01*
X158964000Y-79786400D02*
X158964000Y-80683400D01*
X158964000Y-76809400D02*
X158964000Y-77706400D01*
X158924000Y-79786400D02*
X158924000Y-80717400D01*
X158924000Y-76775400D02*
X158924000Y-77706400D01*
X158884000Y-79786400D02*
X158884000Y-80750400D01*
X158884000Y-76742400D02*
X158884000Y-77706400D01*
X158844000Y-79786400D02*
X158844000Y-80781400D01*
X158844000Y-76711400D02*
X158844000Y-77706400D01*
X158804000Y-79786400D02*
X158804000Y-80811400D01*
X158804000Y-76681400D02*
X158804000Y-77706400D01*
X158764000Y-79786400D02*
X158764000Y-80841400D01*
X158764000Y-76651400D02*
X158764000Y-77706400D01*
X158724000Y-79786400D02*
X158724000Y-80868400D01*
X158724000Y-76624400D02*
X158724000Y-77706400D01*
X158684000Y-79786400D02*
X158684000Y-80895400D01*
X158684000Y-76597400D02*
X158684000Y-77706400D01*
X158644000Y-79786400D02*
X158644000Y-80921400D01*
X158644000Y-76571400D02*
X158644000Y-77706400D01*
X158604000Y-79786400D02*
X158604000Y-80946400D01*
X158604000Y-76546400D02*
X158604000Y-77706400D01*
X158564000Y-79786400D02*
X158564000Y-80970400D01*
X158564000Y-76522400D02*
X158564000Y-77706400D01*
X158524000Y-79786400D02*
X158524000Y-80993400D01*
X158524000Y-76499400D02*
X158524000Y-77706400D01*
X158484000Y-79786400D02*
X158484000Y-81014400D01*
X158484000Y-76478400D02*
X158484000Y-77706400D01*
X158444000Y-79786400D02*
X158444000Y-81036400D01*
X158444000Y-76456400D02*
X158444000Y-77706400D01*
X158404000Y-79786400D02*
X158404000Y-81056400D01*
X158404000Y-76436400D02*
X158404000Y-77706400D01*
X158364000Y-79786400D02*
X158364000Y-81075400D01*
X158364000Y-76417400D02*
X158364000Y-77706400D01*
X158324000Y-79786400D02*
X158324000Y-81094400D01*
X158324000Y-76398400D02*
X158324000Y-77706400D01*
X158284000Y-79786400D02*
X158284000Y-81111400D01*
X158284000Y-76381400D02*
X158284000Y-77706400D01*
X158244000Y-79786400D02*
X158244000Y-81128400D01*
X158244000Y-76364400D02*
X158244000Y-77706400D01*
X158204000Y-79786400D02*
X158204000Y-81144400D01*
X158204000Y-76348400D02*
X158204000Y-77706400D01*
X158164000Y-79786400D02*
X158164000Y-81160400D01*
X158164000Y-76332400D02*
X158164000Y-77706400D01*
X158124000Y-79786400D02*
X158124000Y-81174400D01*
X158124000Y-76318400D02*
X158124000Y-77706400D01*
X158084000Y-79786400D02*
X158084000Y-81188400D01*
X158084000Y-76304400D02*
X158084000Y-77706400D01*
X158044000Y-79786400D02*
X158044000Y-81201400D01*
X158044000Y-76291400D02*
X158044000Y-77706400D01*
X158004000Y-79786400D02*
X158004000Y-81214400D01*
X158004000Y-76278400D02*
X158004000Y-77706400D01*
X157964000Y-79786400D02*
X157964000Y-81226400D01*
X157964000Y-76266400D02*
X157964000Y-77706400D01*
X157923000Y-79786400D02*
X157923000Y-81237400D01*
X157923000Y-76255400D02*
X157923000Y-77706400D01*
X157883000Y-79786400D02*
X157883000Y-81247400D01*
X157883000Y-76245400D02*
X157883000Y-77706400D01*
X157843000Y-79786400D02*
X157843000Y-81257400D01*
X157843000Y-76235400D02*
X157843000Y-77706400D01*
X157803000Y-79786400D02*
X157803000Y-81266400D01*
X157803000Y-76226400D02*
X157803000Y-77706400D01*
X157763000Y-79786400D02*
X157763000Y-81274400D01*
X157763000Y-76218400D02*
X157763000Y-77706400D01*
X157723000Y-79786400D02*
X157723000Y-81282400D01*
X157723000Y-76210400D02*
X157723000Y-77706400D01*
X157683000Y-79786400D02*
X157683000Y-81289400D01*
X157683000Y-76203400D02*
X157683000Y-77706400D01*
X157643000Y-79786400D02*
X157643000Y-81296400D01*
X157643000Y-76196400D02*
X157643000Y-77706400D01*
X157603000Y-79786400D02*
X157603000Y-81302400D01*
X157603000Y-76190400D02*
X157603000Y-77706400D01*
X157563000Y-79786400D02*
X157563000Y-81307400D01*
X157563000Y-76185400D02*
X157563000Y-77706400D01*
X157523000Y-79786400D02*
X157523000Y-81311400D01*
X157523000Y-76181400D02*
X157523000Y-77706400D01*
X157483000Y-79786400D02*
X157483000Y-81315400D01*
X157483000Y-76177400D02*
X157483000Y-77706400D01*
X157443000Y-79786400D02*
X157443000Y-81319400D01*
X157443000Y-76173400D02*
X157443000Y-77706400D01*
X157403000Y-79786400D02*
X157403000Y-81322400D01*
X157403000Y-76170400D02*
X157403000Y-77706400D01*
X157363000Y-79786400D02*
X157363000Y-81324400D01*
X157363000Y-76168400D02*
X157363000Y-77706400D01*
X157323000Y-79786400D02*
X157323000Y-81325400D01*
X157323000Y-76167400D02*
X157323000Y-77706400D01*
X157283000Y-76166400D02*
X157283000Y-77706400D01*
X157283000Y-79786400D02*
X157283000Y-81326400D01*
X157243000Y-76166400D02*
X157243000Y-77706400D01*
X157243000Y-79786400D02*
X157243000Y-81326400D01*
X159863000Y-78746400D02*
G75*
G03X159863000Y-78746400I-2620000J0D01*
G01*
G04 #@! TO.C,C5*
X142413000Y-95996400D02*
G75*
G03X142413000Y-95996400I-2620000J0D01*
G01*
X139793000Y-97036400D02*
X139793000Y-98576400D01*
X139793000Y-93416400D02*
X139793000Y-94956400D01*
X139833000Y-97036400D02*
X139833000Y-98576400D01*
X139833000Y-93416400D02*
X139833000Y-94956400D01*
X139873000Y-93417400D02*
X139873000Y-94956400D01*
X139873000Y-97036400D02*
X139873000Y-98575400D01*
X139913000Y-93418400D02*
X139913000Y-94956400D01*
X139913000Y-97036400D02*
X139913000Y-98574400D01*
X139953000Y-93420400D02*
X139953000Y-94956400D01*
X139953000Y-97036400D02*
X139953000Y-98572400D01*
X139993000Y-93423400D02*
X139993000Y-94956400D01*
X139993000Y-97036400D02*
X139993000Y-98569400D01*
X140033000Y-93427400D02*
X140033000Y-94956400D01*
X140033000Y-97036400D02*
X140033000Y-98565400D01*
X140073000Y-93431400D02*
X140073000Y-94956400D01*
X140073000Y-97036400D02*
X140073000Y-98561400D01*
X140113000Y-93435400D02*
X140113000Y-94956400D01*
X140113000Y-97036400D02*
X140113000Y-98557400D01*
X140153000Y-93440400D02*
X140153000Y-94956400D01*
X140153000Y-97036400D02*
X140153000Y-98552400D01*
X140193000Y-93446400D02*
X140193000Y-94956400D01*
X140193000Y-97036400D02*
X140193000Y-98546400D01*
X140233000Y-93453400D02*
X140233000Y-94956400D01*
X140233000Y-97036400D02*
X140233000Y-98539400D01*
X140273000Y-93460400D02*
X140273000Y-94956400D01*
X140273000Y-97036400D02*
X140273000Y-98532400D01*
X140313000Y-93468400D02*
X140313000Y-94956400D01*
X140313000Y-97036400D02*
X140313000Y-98524400D01*
X140353000Y-93476400D02*
X140353000Y-94956400D01*
X140353000Y-97036400D02*
X140353000Y-98516400D01*
X140393000Y-93485400D02*
X140393000Y-94956400D01*
X140393000Y-97036400D02*
X140393000Y-98507400D01*
X140433000Y-93495400D02*
X140433000Y-94956400D01*
X140433000Y-97036400D02*
X140433000Y-98497400D01*
X140473000Y-93505400D02*
X140473000Y-94956400D01*
X140473000Y-97036400D02*
X140473000Y-98487400D01*
X140514000Y-93516400D02*
X140514000Y-94956400D01*
X140514000Y-97036400D02*
X140514000Y-98476400D01*
X140554000Y-93528400D02*
X140554000Y-94956400D01*
X140554000Y-97036400D02*
X140554000Y-98464400D01*
X140594000Y-93541400D02*
X140594000Y-94956400D01*
X140594000Y-97036400D02*
X140594000Y-98451400D01*
X140634000Y-93554400D02*
X140634000Y-94956400D01*
X140634000Y-97036400D02*
X140634000Y-98438400D01*
X140674000Y-93568400D02*
X140674000Y-94956400D01*
X140674000Y-97036400D02*
X140674000Y-98424400D01*
X140714000Y-93582400D02*
X140714000Y-94956400D01*
X140714000Y-97036400D02*
X140714000Y-98410400D01*
X140754000Y-93598400D02*
X140754000Y-94956400D01*
X140754000Y-97036400D02*
X140754000Y-98394400D01*
X140794000Y-93614400D02*
X140794000Y-94956400D01*
X140794000Y-97036400D02*
X140794000Y-98378400D01*
X140834000Y-93631400D02*
X140834000Y-94956400D01*
X140834000Y-97036400D02*
X140834000Y-98361400D01*
X140874000Y-93648400D02*
X140874000Y-94956400D01*
X140874000Y-97036400D02*
X140874000Y-98344400D01*
X140914000Y-93667400D02*
X140914000Y-94956400D01*
X140914000Y-97036400D02*
X140914000Y-98325400D01*
X140954000Y-93686400D02*
X140954000Y-94956400D01*
X140954000Y-97036400D02*
X140954000Y-98306400D01*
X140994000Y-93706400D02*
X140994000Y-94956400D01*
X140994000Y-97036400D02*
X140994000Y-98286400D01*
X141034000Y-93728400D02*
X141034000Y-94956400D01*
X141034000Y-97036400D02*
X141034000Y-98264400D01*
X141074000Y-93749400D02*
X141074000Y-94956400D01*
X141074000Y-97036400D02*
X141074000Y-98243400D01*
X141114000Y-93772400D02*
X141114000Y-94956400D01*
X141114000Y-97036400D02*
X141114000Y-98220400D01*
X141154000Y-93796400D02*
X141154000Y-94956400D01*
X141154000Y-97036400D02*
X141154000Y-98196400D01*
X141194000Y-93821400D02*
X141194000Y-94956400D01*
X141194000Y-97036400D02*
X141194000Y-98171400D01*
X141234000Y-93847400D02*
X141234000Y-94956400D01*
X141234000Y-97036400D02*
X141234000Y-98145400D01*
X141274000Y-93874400D02*
X141274000Y-94956400D01*
X141274000Y-97036400D02*
X141274000Y-98118400D01*
X141314000Y-93901400D02*
X141314000Y-94956400D01*
X141314000Y-97036400D02*
X141314000Y-98091400D01*
X141354000Y-93931400D02*
X141354000Y-94956400D01*
X141354000Y-97036400D02*
X141354000Y-98061400D01*
X141394000Y-93961400D02*
X141394000Y-94956400D01*
X141394000Y-97036400D02*
X141394000Y-98031400D01*
X141434000Y-93992400D02*
X141434000Y-94956400D01*
X141434000Y-97036400D02*
X141434000Y-98000400D01*
X141474000Y-94025400D02*
X141474000Y-94956400D01*
X141474000Y-97036400D02*
X141474000Y-97967400D01*
X141514000Y-94059400D02*
X141514000Y-94956400D01*
X141514000Y-97036400D02*
X141514000Y-97933400D01*
X141554000Y-94095400D02*
X141554000Y-94956400D01*
X141554000Y-97036400D02*
X141554000Y-97897400D01*
X141594000Y-94132400D02*
X141594000Y-94956400D01*
X141594000Y-97036400D02*
X141594000Y-97860400D01*
X141634000Y-94170400D02*
X141634000Y-94956400D01*
X141634000Y-97036400D02*
X141634000Y-97822400D01*
X141674000Y-94211400D02*
X141674000Y-94956400D01*
X141674000Y-97036400D02*
X141674000Y-97781400D01*
X141714000Y-94253400D02*
X141714000Y-94956400D01*
X141714000Y-97036400D02*
X141714000Y-97739400D01*
X141754000Y-94297400D02*
X141754000Y-94956400D01*
X141754000Y-97036400D02*
X141754000Y-97695400D01*
X141794000Y-94343400D02*
X141794000Y-94956400D01*
X141794000Y-97036400D02*
X141794000Y-97649400D01*
X141834000Y-94391400D02*
X141834000Y-97601400D01*
X141874000Y-94442400D02*
X141874000Y-97550400D01*
X141914000Y-94496400D02*
X141914000Y-97496400D01*
X141954000Y-94553400D02*
X141954000Y-97439400D01*
X141994000Y-94613400D02*
X141994000Y-97379400D01*
X142034000Y-94677400D02*
X142034000Y-97315400D01*
X142074000Y-94745400D02*
X142074000Y-97247400D01*
X142114000Y-94818400D02*
X142114000Y-97174400D01*
X142154000Y-94898400D02*
X142154000Y-97094400D01*
X142194000Y-94985400D02*
X142194000Y-97007400D01*
X142234000Y-95081400D02*
X142234000Y-96911400D01*
X142274000Y-95191400D02*
X142274000Y-96801400D01*
X142314000Y-95319400D02*
X142314000Y-96673400D01*
X142354000Y-95478400D02*
X142354000Y-96514400D01*
X142394000Y-95712400D02*
X142394000Y-96280400D01*
X136988225Y-94521400D02*
X137488225Y-94521400D01*
X137238225Y-94271400D02*
X137238225Y-94771400D01*
G04 #@! TO.C,C6*
X144478225Y-91221400D02*
X144478225Y-91721400D01*
X144228225Y-91471400D02*
X144728225Y-91471400D01*
X149634000Y-92662400D02*
X149634000Y-93230400D01*
X149594000Y-92428400D02*
X149594000Y-93464400D01*
X149554000Y-92269400D02*
X149554000Y-93623400D01*
X149514000Y-92141400D02*
X149514000Y-93751400D01*
X149474000Y-92031400D02*
X149474000Y-93861400D01*
X149434000Y-91935400D02*
X149434000Y-93957400D01*
X149394000Y-91848400D02*
X149394000Y-94044400D01*
X149354000Y-91768400D02*
X149354000Y-94124400D01*
X149314000Y-91695400D02*
X149314000Y-94197400D01*
X149274000Y-91627400D02*
X149274000Y-94265400D01*
X149234000Y-91563400D02*
X149234000Y-94329400D01*
X149194000Y-91503400D02*
X149194000Y-94389400D01*
X149154000Y-91446400D02*
X149154000Y-94446400D01*
X149114000Y-91392400D02*
X149114000Y-94500400D01*
X149074000Y-91341400D02*
X149074000Y-94551400D01*
X149034000Y-93986400D02*
X149034000Y-94599400D01*
X149034000Y-91293400D02*
X149034000Y-91906400D01*
X148994000Y-93986400D02*
X148994000Y-94645400D01*
X148994000Y-91247400D02*
X148994000Y-91906400D01*
X148954000Y-93986400D02*
X148954000Y-94689400D01*
X148954000Y-91203400D02*
X148954000Y-91906400D01*
X148914000Y-93986400D02*
X148914000Y-94731400D01*
X148914000Y-91161400D02*
X148914000Y-91906400D01*
X148874000Y-93986400D02*
X148874000Y-94772400D01*
X148874000Y-91120400D02*
X148874000Y-91906400D01*
X148834000Y-93986400D02*
X148834000Y-94810400D01*
X148834000Y-91082400D02*
X148834000Y-91906400D01*
X148794000Y-93986400D02*
X148794000Y-94847400D01*
X148794000Y-91045400D02*
X148794000Y-91906400D01*
X148754000Y-93986400D02*
X148754000Y-94883400D01*
X148754000Y-91009400D02*
X148754000Y-91906400D01*
X148714000Y-93986400D02*
X148714000Y-94917400D01*
X148714000Y-90975400D02*
X148714000Y-91906400D01*
X148674000Y-93986400D02*
X148674000Y-94950400D01*
X148674000Y-90942400D02*
X148674000Y-91906400D01*
X148634000Y-93986400D02*
X148634000Y-94981400D01*
X148634000Y-90911400D02*
X148634000Y-91906400D01*
X148594000Y-93986400D02*
X148594000Y-95011400D01*
X148594000Y-90881400D02*
X148594000Y-91906400D01*
X148554000Y-93986400D02*
X148554000Y-95041400D01*
X148554000Y-90851400D02*
X148554000Y-91906400D01*
X148514000Y-93986400D02*
X148514000Y-95068400D01*
X148514000Y-90824400D02*
X148514000Y-91906400D01*
X148474000Y-93986400D02*
X148474000Y-95095400D01*
X148474000Y-90797400D02*
X148474000Y-91906400D01*
X148434000Y-93986400D02*
X148434000Y-95121400D01*
X148434000Y-90771400D02*
X148434000Y-91906400D01*
X148394000Y-93986400D02*
X148394000Y-95146400D01*
X148394000Y-90746400D02*
X148394000Y-91906400D01*
X148354000Y-93986400D02*
X148354000Y-95170400D01*
X148354000Y-90722400D02*
X148354000Y-91906400D01*
X148314000Y-93986400D02*
X148314000Y-95193400D01*
X148314000Y-90699400D02*
X148314000Y-91906400D01*
X148274000Y-93986400D02*
X148274000Y-95214400D01*
X148274000Y-90678400D02*
X148274000Y-91906400D01*
X148234000Y-93986400D02*
X148234000Y-95236400D01*
X148234000Y-90656400D02*
X148234000Y-91906400D01*
X148194000Y-93986400D02*
X148194000Y-95256400D01*
X148194000Y-90636400D02*
X148194000Y-91906400D01*
X148154000Y-93986400D02*
X148154000Y-95275400D01*
X148154000Y-90617400D02*
X148154000Y-91906400D01*
X148114000Y-93986400D02*
X148114000Y-95294400D01*
X148114000Y-90598400D02*
X148114000Y-91906400D01*
X148074000Y-93986400D02*
X148074000Y-95311400D01*
X148074000Y-90581400D02*
X148074000Y-91906400D01*
X148034000Y-93986400D02*
X148034000Y-95328400D01*
X148034000Y-90564400D02*
X148034000Y-91906400D01*
X147994000Y-93986400D02*
X147994000Y-95344400D01*
X147994000Y-90548400D02*
X147994000Y-91906400D01*
X147954000Y-93986400D02*
X147954000Y-95360400D01*
X147954000Y-90532400D02*
X147954000Y-91906400D01*
X147914000Y-93986400D02*
X147914000Y-95374400D01*
X147914000Y-90518400D02*
X147914000Y-91906400D01*
X147874000Y-93986400D02*
X147874000Y-95388400D01*
X147874000Y-90504400D02*
X147874000Y-91906400D01*
X147834000Y-93986400D02*
X147834000Y-95401400D01*
X147834000Y-90491400D02*
X147834000Y-91906400D01*
X147794000Y-93986400D02*
X147794000Y-95414400D01*
X147794000Y-90478400D02*
X147794000Y-91906400D01*
X147754000Y-93986400D02*
X147754000Y-95426400D01*
X147754000Y-90466400D02*
X147754000Y-91906400D01*
X147713000Y-93986400D02*
X147713000Y-95437400D01*
X147713000Y-90455400D02*
X147713000Y-91906400D01*
X147673000Y-93986400D02*
X147673000Y-95447400D01*
X147673000Y-90445400D02*
X147673000Y-91906400D01*
X147633000Y-93986400D02*
X147633000Y-95457400D01*
X147633000Y-90435400D02*
X147633000Y-91906400D01*
X147593000Y-93986400D02*
X147593000Y-95466400D01*
X147593000Y-90426400D02*
X147593000Y-91906400D01*
X147553000Y-93986400D02*
X147553000Y-95474400D01*
X147553000Y-90418400D02*
X147553000Y-91906400D01*
X147513000Y-93986400D02*
X147513000Y-95482400D01*
X147513000Y-90410400D02*
X147513000Y-91906400D01*
X147473000Y-93986400D02*
X147473000Y-95489400D01*
X147473000Y-90403400D02*
X147473000Y-91906400D01*
X147433000Y-93986400D02*
X147433000Y-95496400D01*
X147433000Y-90396400D02*
X147433000Y-91906400D01*
X147393000Y-93986400D02*
X147393000Y-95502400D01*
X147393000Y-90390400D02*
X147393000Y-91906400D01*
X147353000Y-93986400D02*
X147353000Y-95507400D01*
X147353000Y-90385400D02*
X147353000Y-91906400D01*
X147313000Y-93986400D02*
X147313000Y-95511400D01*
X147313000Y-90381400D02*
X147313000Y-91906400D01*
X147273000Y-93986400D02*
X147273000Y-95515400D01*
X147273000Y-90377400D02*
X147273000Y-91906400D01*
X147233000Y-93986400D02*
X147233000Y-95519400D01*
X147233000Y-90373400D02*
X147233000Y-91906400D01*
X147193000Y-93986400D02*
X147193000Y-95522400D01*
X147193000Y-90370400D02*
X147193000Y-91906400D01*
X147153000Y-93986400D02*
X147153000Y-95524400D01*
X147153000Y-90368400D02*
X147153000Y-91906400D01*
X147113000Y-93986400D02*
X147113000Y-95525400D01*
X147113000Y-90367400D02*
X147113000Y-91906400D01*
X147073000Y-90366400D02*
X147073000Y-91906400D01*
X147073000Y-93986400D02*
X147073000Y-95526400D01*
X147033000Y-90366400D02*
X147033000Y-91906400D01*
X147033000Y-93986400D02*
X147033000Y-95526400D01*
X149653000Y-92946400D02*
G75*
G03X149653000Y-92946400I-2620000J0D01*
G01*
G04 #@! TO.C,D1*
X201311130Y-93079837D02*
G75*
G02X199229039Y-93080000I-1041130J1079837D01*
G01*
X201311130Y-90920163D02*
G75*
G03X199229039Y-90920000I-1041130J-1079837D01*
G01*
X201942335Y-93078608D02*
G75*
G02X198710000Y-93235516I-1672335J1078608D01*
G01*
X201942335Y-90921392D02*
G75*
G03X198710000Y-90764484I-1672335J-1078608D01*
G01*
X198710000Y-93080000D02*
X198710000Y-93236000D01*
X198710000Y-90764000D02*
X198710000Y-90920000D01*
G04 #@! TO.C,D2*
X198710000Y-85764000D02*
X198710000Y-85920000D01*
X198710000Y-88080000D02*
X198710000Y-88236000D01*
X201942335Y-85921392D02*
G75*
G03X198710000Y-85764484I-1672335J-1078608D01*
G01*
X201942335Y-88078608D02*
G75*
G02X198710000Y-88235516I-1672335J1078608D01*
G01*
X201311130Y-85920163D02*
G75*
G03X199229039Y-85920000I-1041130J-1079837D01*
G01*
X201311130Y-88079837D02*
G75*
G02X199229039Y-88080000I-1041130J1079837D01*
G01*
G04 #@! TO.C,D3*
X169771130Y-88079837D02*
G75*
G02X167689039Y-88080000I-1041130J1079837D01*
G01*
X169771130Y-85920163D02*
G75*
G03X167689039Y-85920000I-1041130J-1079837D01*
G01*
X170402335Y-88078608D02*
G75*
G02X167170000Y-88235516I-1672335J1078608D01*
G01*
X170402335Y-85921392D02*
G75*
G03X167170000Y-85764484I-1672335J-1078608D01*
G01*
X167170000Y-88080000D02*
X167170000Y-88236000D01*
X167170000Y-85764000D02*
X167170000Y-85920000D01*
G04 #@! TO.C,D4*
X198710000Y-80764000D02*
X198710000Y-80920000D01*
X198710000Y-83080000D02*
X198710000Y-83236000D01*
X201942335Y-80921392D02*
G75*
G03X198710000Y-80764484I-1672335J-1078608D01*
G01*
X201942335Y-83078608D02*
G75*
G02X198710000Y-83235516I-1672335J1078608D01*
G01*
X201311130Y-80920163D02*
G75*
G03X199229039Y-80920000I-1041130J-1079837D01*
G01*
X201311130Y-83079837D02*
G75*
G02X199229039Y-83080000I-1041130J1079837D01*
G01*
G04 #@! TO.C,D5*
X169811130Y-98079837D02*
G75*
G02X167729039Y-98080000I-1041130J1079837D01*
G01*
X169811130Y-95920163D02*
G75*
G03X167729039Y-95920000I-1041130J-1079837D01*
G01*
X170442335Y-98078608D02*
G75*
G02X167210000Y-98235516I-1672335J1078608D01*
G01*
X170442335Y-95921392D02*
G75*
G03X167210000Y-95764484I-1672335J-1078608D01*
G01*
X167210000Y-98080000D02*
X167210000Y-98236000D01*
X167210000Y-95764000D02*
X167210000Y-95920000D01*
G04 #@! TO.C,D6*
X198710000Y-95764000D02*
X198710000Y-95920000D01*
X198710000Y-98080000D02*
X198710000Y-98236000D01*
X201942335Y-95921392D02*
G75*
G03X198710000Y-95764484I-1672335J-1078608D01*
G01*
X201942335Y-98078608D02*
G75*
G02X198710000Y-98235516I-1672335J1078608D01*
G01*
X201311130Y-95920163D02*
G75*
G03X199229039Y-95920000I-1041130J-1079837D01*
G01*
X201311130Y-98079837D02*
G75*
G02X199229039Y-98080000I-1041130J1079837D01*
G01*
G04 #@! TO.C,D7*
X167210000Y-80764000D02*
X167210000Y-80920000D01*
X167210000Y-83080000D02*
X167210000Y-83236000D01*
X170442335Y-80921392D02*
G75*
G03X167210000Y-80764484I-1672335J-1078608D01*
G01*
X170442335Y-83078608D02*
G75*
G02X167210000Y-83235516I-1672335J1078608D01*
G01*
X169811130Y-80920163D02*
G75*
G03X167729039Y-80920000I-1041130J-1079837D01*
G01*
X169811130Y-83079837D02*
G75*
G02X167729039Y-83080000I-1041130J1079837D01*
G01*
G04 #@! TO.C,D8*
X167210000Y-90764000D02*
X167210000Y-90920000D01*
X167210000Y-93080000D02*
X167210000Y-93236000D01*
X170442335Y-90921392D02*
G75*
G03X167210000Y-90764484I-1672335J-1078608D01*
G01*
X170442335Y-93078608D02*
G75*
G02X167210000Y-93235516I-1672335J1078608D01*
G01*
X169811130Y-90920163D02*
G75*
G03X167729039Y-90920000I-1041130J-1079837D01*
G01*
X169811130Y-93079837D02*
G75*
G02X167729039Y-93080000I-1041130J1079837D01*
G01*
G04 #@! TO.C,M1*
X150223000Y-89836400D02*
X150223000Y-93436400D01*
X150223000Y-93436400D02*
X154573000Y-93436400D01*
X154573000Y-93436400D02*
X154573000Y-89836400D01*
X154573000Y-89836400D02*
X150223000Y-89836400D01*
X149913000Y-91836400D02*
X149913000Y-93746400D01*
X149913000Y-93746400D02*
X151823000Y-93746400D01*
X150223000Y-92136400D02*
X150523000Y-92136400D01*
X150523000Y-92136400D02*
X150523000Y-93136400D01*
X150523000Y-93136400D02*
X154273000Y-93136400D01*
X154273000Y-93136400D02*
X154273000Y-92136400D01*
X154273000Y-92136400D02*
X154573000Y-92136400D01*
X150223000Y-91386400D02*
X150523000Y-91386400D01*
X150523000Y-91386400D02*
X150523000Y-90286400D01*
X150523000Y-90286400D02*
X150823000Y-90286400D01*
X150823000Y-90286400D02*
X150823000Y-89836400D01*
X154573000Y-91386400D02*
X154273000Y-91386400D01*
X154273000Y-91386400D02*
X154273000Y-90286400D01*
X154273000Y-90286400D02*
X153973000Y-90286400D01*
X153973000Y-90286400D02*
X153973000Y-89836400D01*
X150823000Y-90286400D02*
X152023000Y-90286400D01*
X152023000Y-90286400D02*
X152023000Y-89986400D01*
X152023000Y-89986400D02*
X152773000Y-89986400D01*
X152773000Y-89986400D02*
X152773000Y-90286400D01*
X152773000Y-90286400D02*
X152023000Y-90286400D01*
X152023000Y-90286400D02*
X152023000Y-89986400D01*
X152023000Y-89986400D02*
X152773000Y-89986400D01*
X152773000Y-89986400D02*
X152773000Y-90286400D01*
X152773000Y-90286400D02*
X153973000Y-90286400D01*
G04 #@! TO.C,Q1*
X154391478Y-89214878D02*
G75*
G03X152553000Y-84776400I-1838478J1838478D01*
G01*
X150714522Y-89214878D02*
G75*
G02X152553000Y-84776400I1838478J1838478D01*
G01*
X150753000Y-89226400D02*
X154353000Y-89226400D01*
G04 #@! TO.C,Q2*
X137643000Y-103376000D02*
X141243000Y-103376000D01*
X137604522Y-103364478D02*
G75*
G02X139443000Y-98926000I1838478J1838478D01*
G01*
X141281478Y-103364478D02*
G75*
G03X139443000Y-98926000I-1838478J1838478D01*
G01*
G04 #@! TO.C,Q3*
X135771478Y-103364478D02*
G75*
G03X133933000Y-98926000I-1838478J1838478D01*
G01*
X132094522Y-103364478D02*
G75*
G02X133933000Y-98926000I1838478J1838478D01*
G01*
X132133000Y-103376000D02*
X135733000Y-103376000D01*
G04 #@! TO.C,Q4*
X160963000Y-80576400D02*
X164563000Y-80576400D01*
X160924522Y-80564878D02*
G75*
G02X162763000Y-76126400I1838478J1838478D01*
G01*
X164601478Y-80564878D02*
G75*
G03X162763000Y-76126400I-1838478J1838478D01*
G01*
G04 #@! TO.C,Q5*
X130261478Y-103364478D02*
G75*
G03X128423000Y-98926000I-1838478J1838478D01*
G01*
X126584522Y-103364478D02*
G75*
G02X128423000Y-98926000I1838478J1838478D01*
G01*
X126623000Y-103376000D02*
X130223000Y-103376000D01*
G04 #@! TO.C,Q6*
X143513000Y-100326400D02*
X147113000Y-100326400D01*
X143474522Y-100314878D02*
G75*
G02X145313000Y-95876400I1838478J1838478D01*
G01*
X147151478Y-100314878D02*
G75*
G03X145313000Y-95876400I-1838478J1838478D01*
G01*
G04 #@! TO.C,R1*
X118333000Y-101976000D02*
X122173000Y-101976000D01*
X118333000Y-103816000D02*
X122173000Y-103816000D01*
G04 #@! TO.C,R2*
X133963000Y-83496400D02*
X133013000Y-83496400D01*
X128223000Y-83496400D02*
X129173000Y-83496400D01*
X133013000Y-82576400D02*
X129173000Y-82576400D01*
X133013000Y-84416400D02*
X133013000Y-82576400D01*
X129173000Y-84416400D02*
X133013000Y-84416400D01*
X129173000Y-82576400D02*
X129173000Y-84416400D01*
G04 #@! TO.C,R3*
X119603000Y-91176400D02*
X119603000Y-93016400D01*
X119603000Y-93016400D02*
X123443000Y-93016400D01*
X123443000Y-93016400D02*
X123443000Y-91176400D01*
X123443000Y-91176400D02*
X119603000Y-91176400D01*
X118653000Y-92096400D02*
X119603000Y-92096400D01*
X124393000Y-92096400D02*
X123443000Y-92096400D01*
G04 #@! TO.C,R4*
X133963000Y-81346400D02*
X133013000Y-81346400D01*
X128223000Y-81346400D02*
X129173000Y-81346400D01*
X133013000Y-80426400D02*
X129173000Y-80426400D01*
X133013000Y-82266400D02*
X133013000Y-80426400D01*
X129173000Y-82266400D02*
X133013000Y-82266400D01*
X129173000Y-80426400D02*
X129173000Y-82266400D01*
G04 #@! TO.C,R5*
X119603000Y-89026400D02*
X119603000Y-90866400D01*
X119603000Y-90866400D02*
X123443000Y-90866400D01*
X123443000Y-90866400D02*
X123443000Y-89026400D01*
X123443000Y-89026400D02*
X119603000Y-89026400D01*
X118653000Y-89946400D02*
X119603000Y-89946400D01*
X124393000Y-89946400D02*
X123443000Y-89946400D01*
G04 #@! TO.C,R6*
X143533000Y-79196400D02*
X142583000Y-79196400D01*
X137793000Y-79196400D02*
X138743000Y-79196400D01*
X142583000Y-78276400D02*
X138743000Y-78276400D01*
X142583000Y-80116400D02*
X142583000Y-78276400D01*
X138743000Y-80116400D02*
X142583000Y-80116400D01*
X138743000Y-78276400D02*
X138743000Y-80116400D01*
G04 #@! TO.C,R7*
X138743000Y-76126400D02*
X138743000Y-77966400D01*
X138743000Y-77966400D02*
X142583000Y-77966400D01*
X142583000Y-77966400D02*
X142583000Y-76126400D01*
X142583000Y-76126400D02*
X138743000Y-76126400D01*
X137793000Y-77046400D02*
X138743000Y-77046400D01*
X143533000Y-77046400D02*
X142583000Y-77046400D01*
G04 #@! TO.C,R8*
X124393000Y-77046400D02*
X123443000Y-77046400D01*
X118653000Y-77046400D02*
X119603000Y-77046400D01*
X123443000Y-76126400D02*
X119603000Y-76126400D01*
X123443000Y-77966400D02*
X123443000Y-76126400D01*
X119603000Y-77966400D02*
X123443000Y-77966400D01*
X119603000Y-76126400D02*
X119603000Y-77966400D01*
G04 #@! TO.C,R9*
X119603000Y-86876400D02*
X119603000Y-88716400D01*
X119603000Y-88716400D02*
X123443000Y-88716400D01*
X123443000Y-88716400D02*
X123443000Y-86876400D01*
X123443000Y-86876400D02*
X119603000Y-86876400D01*
X118653000Y-87796400D02*
X119603000Y-87796400D01*
X124393000Y-87796400D02*
X123443000Y-87796400D01*
G04 #@! TO.C,R10*
X119603000Y-84726400D02*
X119603000Y-86566400D01*
X119603000Y-86566400D02*
X123443000Y-86566400D01*
X123443000Y-86566400D02*
X123443000Y-84726400D01*
X123443000Y-84726400D02*
X119603000Y-84726400D01*
X118653000Y-85646400D02*
X119603000Y-85646400D01*
X124393000Y-85646400D02*
X123443000Y-85646400D01*
G04 #@! TO.C,R11*
X124393000Y-83496400D02*
X123443000Y-83496400D01*
X118653000Y-83496400D02*
X119603000Y-83496400D01*
X123443000Y-82576400D02*
X119603000Y-82576400D01*
X123443000Y-84416400D02*
X123443000Y-82576400D01*
X119603000Y-84416400D02*
X123443000Y-84416400D01*
X119603000Y-82576400D02*
X119603000Y-84416400D01*
G04 #@! TO.C,R12*
X129173000Y-78276400D02*
X129173000Y-80116400D01*
X129173000Y-80116400D02*
X133013000Y-80116400D01*
X133013000Y-80116400D02*
X133013000Y-78276400D01*
X133013000Y-78276400D02*
X129173000Y-78276400D01*
X128223000Y-79196400D02*
X129173000Y-79196400D01*
X133963000Y-79196400D02*
X133013000Y-79196400D01*
G04 #@! TO.C,R13*
X124393000Y-81346400D02*
X123443000Y-81346400D01*
X118653000Y-81346400D02*
X119603000Y-81346400D01*
X123443000Y-80426400D02*
X119603000Y-80426400D01*
X123443000Y-82266400D02*
X123443000Y-80426400D01*
X119603000Y-82266400D02*
X123443000Y-82266400D01*
X119603000Y-80426400D02*
X119603000Y-82266400D01*
G04 #@! TO.C,R14*
X129173000Y-76126400D02*
X129173000Y-77966400D01*
X129173000Y-77966400D02*
X133013000Y-77966400D01*
X133013000Y-77966400D02*
X133013000Y-76126400D01*
X133013000Y-76126400D02*
X129173000Y-76126400D01*
X128223000Y-77046400D02*
X129173000Y-77046400D01*
X133963000Y-77046400D02*
X133013000Y-77046400D01*
G04 #@! TO.C,R15*
X124393000Y-79196400D02*
X123443000Y-79196400D01*
X118653000Y-79196400D02*
X119603000Y-79196400D01*
X123443000Y-78276400D02*
X119603000Y-78276400D01*
X123443000Y-80116400D02*
X123443000Y-78276400D01*
X119603000Y-80116400D02*
X123443000Y-80116400D01*
X119603000Y-78276400D02*
X119603000Y-80116400D01*
G04 #@! TO.C,SW1*
X135298000Y-85946400D02*
X135298000Y-88146400D01*
X136598000Y-85946400D02*
X135298000Y-85946400D01*
X140088000Y-92976400D02*
X143768000Y-92976400D01*
X139318000Y-92976400D02*
X135638000Y-92976400D01*
X139318000Y-92976400D02*
X139318000Y-92716400D01*
X139318000Y-92716400D02*
X140088000Y-92716400D01*
X140088000Y-92716400D02*
X140088000Y-92976400D01*
X136908000Y-85986400D02*
X142498000Y-85986400D01*
X136908000Y-85096400D02*
X142498000Y-85096400D01*
X143768000Y-86236400D02*
X143768000Y-88146400D01*
X135638000Y-86236400D02*
X135638000Y-88146400D01*
X136908000Y-84846400D02*
X142498000Y-84846400D01*
X142498000Y-86236400D02*
X142498000Y-84846400D01*
X136908000Y-86236400D02*
X136908000Y-84846400D01*
X135638000Y-86236400D02*
X143768000Y-86236400D01*
X135638000Y-88146400D02*
X135638000Y-92976400D01*
X143768000Y-92976400D02*
X143768000Y-88146400D01*
G04 #@! TO.C,SW2*
X126368000Y-85946400D02*
X126368000Y-88146400D01*
X127668000Y-85946400D02*
X126368000Y-85946400D01*
X131158000Y-92976400D02*
X134838000Y-92976400D01*
X130388000Y-92976400D02*
X126708000Y-92976400D01*
X130388000Y-92976400D02*
X130388000Y-92716400D01*
X130388000Y-92716400D02*
X131158000Y-92716400D01*
X131158000Y-92716400D02*
X131158000Y-92976400D01*
X127978000Y-85986400D02*
X133568000Y-85986400D01*
X127978000Y-85096400D02*
X133568000Y-85096400D01*
X134838000Y-86236400D02*
X134838000Y-88146400D01*
X126708000Y-86236400D02*
X126708000Y-88146400D01*
X127978000Y-84846400D02*
X133568000Y-84846400D01*
X133568000Y-86236400D02*
X133568000Y-84846400D01*
X127978000Y-86236400D02*
X127978000Y-84846400D01*
X126708000Y-86236400D02*
X134838000Y-86236400D01*
X126708000Y-88146400D02*
X126708000Y-92976400D01*
X134838000Y-92976400D02*
X134838000Y-88146400D01*
G04 #@! TO.C,BT1*
D11*
X120422285Y-91594971D02*
X120565142Y-91642590D01*
X120612761Y-91690209D01*
X120660380Y-91785447D01*
X120660380Y-91928304D01*
X120612761Y-92023542D01*
X120565142Y-92071161D01*
X120469904Y-92118780D01*
X120088952Y-92118780D01*
X120088952Y-91118780D01*
X120422285Y-91118780D01*
X120517523Y-91166400D01*
X120565142Y-91214019D01*
X120612761Y-91309257D01*
X120612761Y-91404495D01*
X120565142Y-91499733D01*
X120517523Y-91547352D01*
X120422285Y-91594971D01*
X120088952Y-91594971D01*
X120946095Y-91118780D02*
X121517523Y-91118780D01*
X121231809Y-92118780D02*
X121231809Y-91118780D01*
X122374666Y-92118780D02*
X121803238Y-92118780D01*
X122088952Y-92118780D02*
X122088952Y-91118780D01*
X121993714Y-91261638D01*
X121898476Y-91356876D01*
X121803238Y-91404495D01*
G04 #@! TO.C,BT2*
X149214285Y-74928571D02*
X149357142Y-74976190D01*
X149404761Y-75023809D01*
X149452380Y-75119047D01*
X149452380Y-75261904D01*
X149404761Y-75357142D01*
X149357142Y-75404761D01*
X149261904Y-75452380D01*
X148880952Y-75452380D01*
X148880952Y-74452380D01*
X149214285Y-74452380D01*
X149309523Y-74500000D01*
X149357142Y-74547619D01*
X149404761Y-74642857D01*
X149404761Y-74738095D01*
X149357142Y-74833333D01*
X149309523Y-74880952D01*
X149214285Y-74928571D01*
X148880952Y-74928571D01*
X149738095Y-74452380D02*
X150309523Y-74452380D01*
X150023809Y-75452380D02*
X150023809Y-74452380D01*
X150595238Y-74547619D02*
X150642857Y-74500000D01*
X150738095Y-74452380D01*
X150976190Y-74452380D01*
X151071428Y-74500000D01*
X151119047Y-74547619D01*
X151166666Y-74642857D01*
X151166666Y-74738095D01*
X151119047Y-74880952D01*
X150547619Y-75452380D01*
X151166666Y-75452380D01*
G04 #@! TO.C,C1*
X128366333Y-92603542D02*
X128318714Y-92651161D01*
X128175857Y-92698780D01*
X128080619Y-92698780D01*
X127937761Y-92651161D01*
X127842523Y-92555923D01*
X127794904Y-92460685D01*
X127747285Y-92270209D01*
X127747285Y-92127352D01*
X127794904Y-91936876D01*
X127842523Y-91841638D01*
X127937761Y-91746400D01*
X128080619Y-91698780D01*
X128175857Y-91698780D01*
X128318714Y-91746400D01*
X128366333Y-91794019D01*
X129318714Y-92698780D02*
X128747285Y-92698780D01*
X129033000Y-92698780D02*
X129033000Y-91698780D01*
X128937761Y-91841638D01*
X128842523Y-91936876D01*
X128747285Y-91984495D01*
G04 #@! TO.C,C2*
X146866333Y-84003542D02*
X146818714Y-84051161D01*
X146675857Y-84098780D01*
X146580619Y-84098780D01*
X146437761Y-84051161D01*
X146342523Y-83955923D01*
X146294904Y-83860685D01*
X146247285Y-83670209D01*
X146247285Y-83527352D01*
X146294904Y-83336876D01*
X146342523Y-83241638D01*
X146437761Y-83146400D01*
X146580619Y-83098780D01*
X146675857Y-83098780D01*
X146818714Y-83146400D01*
X146866333Y-83194019D01*
X147247285Y-83194019D02*
X147294904Y-83146400D01*
X147390142Y-83098780D01*
X147628238Y-83098780D01*
X147723476Y-83146400D01*
X147771095Y-83194019D01*
X147818714Y-83289257D01*
X147818714Y-83384495D01*
X147771095Y-83527352D01*
X147199666Y-84098780D01*
X147818714Y-84098780D01*
G04 #@! TO.C,C3*
X133996333Y-92603542D02*
X133948714Y-92651161D01*
X133805857Y-92698780D01*
X133710619Y-92698780D01*
X133567761Y-92651161D01*
X133472523Y-92555923D01*
X133424904Y-92460685D01*
X133377285Y-92270209D01*
X133377285Y-92127352D01*
X133424904Y-91936876D01*
X133472523Y-91841638D01*
X133567761Y-91746400D01*
X133710619Y-91698780D01*
X133805857Y-91698780D01*
X133948714Y-91746400D01*
X133996333Y-91794019D01*
X134329666Y-91698780D02*
X134948714Y-91698780D01*
X134615380Y-92079733D01*
X134758238Y-92079733D01*
X134853476Y-92127352D01*
X134901095Y-92174971D01*
X134948714Y-92270209D01*
X134948714Y-92508304D01*
X134901095Y-92603542D01*
X134853476Y-92651161D01*
X134758238Y-92698780D01*
X134472523Y-92698780D01*
X134377285Y-92651161D01*
X134329666Y-92603542D01*
G04 #@! TO.C,C4*
X157076333Y-75353542D02*
X157028714Y-75401161D01*
X156885857Y-75448780D01*
X156790619Y-75448780D01*
X156647761Y-75401161D01*
X156552523Y-75305923D01*
X156504904Y-75210685D01*
X156457285Y-75020209D01*
X156457285Y-74877352D01*
X156504904Y-74686876D01*
X156552523Y-74591638D01*
X156647761Y-74496400D01*
X156790619Y-74448780D01*
X156885857Y-74448780D01*
X157028714Y-74496400D01*
X157076333Y-74544019D01*
X157933476Y-74782114D02*
X157933476Y-75448780D01*
X157695380Y-74401161D02*
X157457285Y-75115447D01*
X158076333Y-75115447D01*
G04 #@! TO.C,C5*
X139626333Y-92603542D02*
X139578714Y-92651161D01*
X139435857Y-92698780D01*
X139340619Y-92698780D01*
X139197761Y-92651161D01*
X139102523Y-92555923D01*
X139054904Y-92460685D01*
X139007285Y-92270209D01*
X139007285Y-92127352D01*
X139054904Y-91936876D01*
X139102523Y-91841638D01*
X139197761Y-91746400D01*
X139340619Y-91698780D01*
X139435857Y-91698780D01*
X139578714Y-91746400D01*
X139626333Y-91794019D01*
X140531095Y-91698780D02*
X140054904Y-91698780D01*
X140007285Y-92174971D01*
X140054904Y-92127352D01*
X140150142Y-92079733D01*
X140388238Y-92079733D01*
X140483476Y-92127352D01*
X140531095Y-92174971D01*
X140578714Y-92270209D01*
X140578714Y-92508304D01*
X140531095Y-92603542D01*
X140483476Y-92651161D01*
X140388238Y-92698780D01*
X140150142Y-92698780D01*
X140054904Y-92651161D01*
X140007285Y-92603542D01*
G04 #@! TO.C,C6*
X146866333Y-89553542D02*
X146818714Y-89601161D01*
X146675857Y-89648780D01*
X146580619Y-89648780D01*
X146437761Y-89601161D01*
X146342523Y-89505923D01*
X146294904Y-89410685D01*
X146247285Y-89220209D01*
X146247285Y-89077352D01*
X146294904Y-88886876D01*
X146342523Y-88791638D01*
X146437761Y-88696400D01*
X146580619Y-88648780D01*
X146675857Y-88648780D01*
X146818714Y-88696400D01*
X146866333Y-88744019D01*
X147723476Y-88648780D02*
X147533000Y-88648780D01*
X147437761Y-88696400D01*
X147390142Y-88744019D01*
X147294904Y-88886876D01*
X147247285Y-89077352D01*
X147247285Y-89458304D01*
X147294904Y-89553542D01*
X147342523Y-89601161D01*
X147437761Y-89648780D01*
X147628238Y-89648780D01*
X147723476Y-89601161D01*
X147771095Y-89553542D01*
X147818714Y-89458304D01*
X147818714Y-89220209D01*
X147771095Y-89124971D01*
X147723476Y-89077352D01*
X147628238Y-89029733D01*
X147437761Y-89029733D01*
X147342523Y-89077352D01*
X147294904Y-89124971D01*
X147247285Y-89220209D01*
G04 #@! TO.C,D1*
X199531904Y-89492380D02*
X199531904Y-88492380D01*
X199770000Y-88492380D01*
X199912857Y-88540000D01*
X200008095Y-88635238D01*
X200055714Y-88730476D01*
X200103333Y-88920952D01*
X200103333Y-89063809D01*
X200055714Y-89254285D01*
X200008095Y-89349523D01*
X199912857Y-89444761D01*
X199770000Y-89492380D01*
X199531904Y-89492380D01*
X201055714Y-89492380D02*
X200484285Y-89492380D01*
X200770000Y-89492380D02*
X200770000Y-88492380D01*
X200674761Y-88635238D01*
X200579523Y-88730476D01*
X200484285Y-88778095D01*
G04 #@! TO.C,D2*
X199531904Y-84492380D02*
X199531904Y-83492380D01*
X199770000Y-83492380D01*
X199912857Y-83540000D01*
X200008095Y-83635238D01*
X200055714Y-83730476D01*
X200103333Y-83920952D01*
X200103333Y-84063809D01*
X200055714Y-84254285D01*
X200008095Y-84349523D01*
X199912857Y-84444761D01*
X199770000Y-84492380D01*
X199531904Y-84492380D01*
X200484285Y-83587619D02*
X200531904Y-83540000D01*
X200627142Y-83492380D01*
X200865238Y-83492380D01*
X200960476Y-83540000D01*
X201008095Y-83587619D01*
X201055714Y-83682857D01*
X201055714Y-83778095D01*
X201008095Y-83920952D01*
X200436666Y-84492380D01*
X201055714Y-84492380D01*
G04 #@! TO.C,D3*
X167991904Y-84492380D02*
X167991904Y-83492380D01*
X168230000Y-83492380D01*
X168372857Y-83540000D01*
X168468095Y-83635238D01*
X168515714Y-83730476D01*
X168563333Y-83920952D01*
X168563333Y-84063809D01*
X168515714Y-84254285D01*
X168468095Y-84349523D01*
X168372857Y-84444761D01*
X168230000Y-84492380D01*
X167991904Y-84492380D01*
X168896666Y-83492380D02*
X169515714Y-83492380D01*
X169182380Y-83873333D01*
X169325238Y-83873333D01*
X169420476Y-83920952D01*
X169468095Y-83968571D01*
X169515714Y-84063809D01*
X169515714Y-84301904D01*
X169468095Y-84397142D01*
X169420476Y-84444761D01*
X169325238Y-84492380D01*
X169039523Y-84492380D01*
X168944285Y-84444761D01*
X168896666Y-84397142D01*
G04 #@! TO.C,D4*
X199531904Y-79492380D02*
X199531904Y-78492380D01*
X199770000Y-78492380D01*
X199912857Y-78540000D01*
X200008095Y-78635238D01*
X200055714Y-78730476D01*
X200103333Y-78920952D01*
X200103333Y-79063809D01*
X200055714Y-79254285D01*
X200008095Y-79349523D01*
X199912857Y-79444761D01*
X199770000Y-79492380D01*
X199531904Y-79492380D01*
X200960476Y-78825714D02*
X200960476Y-79492380D01*
X200722380Y-78444761D02*
X200484285Y-79159047D01*
X201103333Y-79159047D01*
G04 #@! TO.C,D5*
X168031904Y-94492380D02*
X168031904Y-93492380D01*
X168270000Y-93492380D01*
X168412857Y-93540000D01*
X168508095Y-93635238D01*
X168555714Y-93730476D01*
X168603333Y-93920952D01*
X168603333Y-94063809D01*
X168555714Y-94254285D01*
X168508095Y-94349523D01*
X168412857Y-94444761D01*
X168270000Y-94492380D01*
X168031904Y-94492380D01*
X169508095Y-93492380D02*
X169031904Y-93492380D01*
X168984285Y-93968571D01*
X169031904Y-93920952D01*
X169127142Y-93873333D01*
X169365238Y-93873333D01*
X169460476Y-93920952D01*
X169508095Y-93968571D01*
X169555714Y-94063809D01*
X169555714Y-94301904D01*
X169508095Y-94397142D01*
X169460476Y-94444761D01*
X169365238Y-94492380D01*
X169127142Y-94492380D01*
X169031904Y-94444761D01*
X168984285Y-94397142D01*
G04 #@! TO.C,D6*
X199531904Y-94492380D02*
X199531904Y-93492380D01*
X199770000Y-93492380D01*
X199912857Y-93540000D01*
X200008095Y-93635238D01*
X200055714Y-93730476D01*
X200103333Y-93920952D01*
X200103333Y-94063809D01*
X200055714Y-94254285D01*
X200008095Y-94349523D01*
X199912857Y-94444761D01*
X199770000Y-94492380D01*
X199531904Y-94492380D01*
X200960476Y-93492380D02*
X200770000Y-93492380D01*
X200674761Y-93540000D01*
X200627142Y-93587619D01*
X200531904Y-93730476D01*
X200484285Y-93920952D01*
X200484285Y-94301904D01*
X200531904Y-94397142D01*
X200579523Y-94444761D01*
X200674761Y-94492380D01*
X200865238Y-94492380D01*
X200960476Y-94444761D01*
X201008095Y-94397142D01*
X201055714Y-94301904D01*
X201055714Y-94063809D01*
X201008095Y-93968571D01*
X200960476Y-93920952D01*
X200865238Y-93873333D01*
X200674761Y-93873333D01*
X200579523Y-93920952D01*
X200531904Y-93968571D01*
X200484285Y-94063809D01*
G04 #@! TO.C,D7*
X168031904Y-79492380D02*
X168031904Y-78492380D01*
X168270000Y-78492380D01*
X168412857Y-78540000D01*
X168508095Y-78635238D01*
X168555714Y-78730476D01*
X168603333Y-78920952D01*
X168603333Y-79063809D01*
X168555714Y-79254285D01*
X168508095Y-79349523D01*
X168412857Y-79444761D01*
X168270000Y-79492380D01*
X168031904Y-79492380D01*
X168936666Y-78492380D02*
X169603333Y-78492380D01*
X169174761Y-79492380D01*
G04 #@! TO.C,D8*
X168031904Y-89492380D02*
X168031904Y-88492380D01*
X168270000Y-88492380D01*
X168412857Y-88540000D01*
X168508095Y-88635238D01*
X168555714Y-88730476D01*
X168603333Y-88920952D01*
X168603333Y-89063809D01*
X168555714Y-89254285D01*
X168508095Y-89349523D01*
X168412857Y-89444761D01*
X168270000Y-89492380D01*
X168031904Y-89492380D01*
X169174761Y-88920952D02*
X169079523Y-88873333D01*
X169031904Y-88825714D01*
X168984285Y-88730476D01*
X168984285Y-88682857D01*
X169031904Y-88587619D01*
X169079523Y-88540000D01*
X169174761Y-88492380D01*
X169365238Y-88492380D01*
X169460476Y-88540000D01*
X169508095Y-88587619D01*
X169555714Y-88682857D01*
X169555714Y-88730476D01*
X169508095Y-88825714D01*
X169460476Y-88873333D01*
X169365238Y-88920952D01*
X169174761Y-88920952D01*
X169079523Y-88968571D01*
X169031904Y-89016190D01*
X168984285Y-89111428D01*
X168984285Y-89301904D01*
X169031904Y-89397142D01*
X169079523Y-89444761D01*
X169174761Y-89492380D01*
X169365238Y-89492380D01*
X169460476Y-89444761D01*
X169508095Y-89397142D01*
X169555714Y-89301904D01*
X169555714Y-89111428D01*
X169508095Y-89016190D01*
X169460476Y-88968571D01*
X169365238Y-88920952D01*
G04 #@! TO.C,M1*
X151583476Y-89188780D02*
X151583476Y-88188780D01*
X151916809Y-88903066D01*
X152250142Y-88188780D01*
X152250142Y-89188780D01*
X153250142Y-89188780D02*
X152678714Y-89188780D01*
X152964428Y-89188780D02*
X152964428Y-88188780D01*
X152869190Y-88331638D01*
X152773952Y-88426876D01*
X152678714Y-88474495D01*
G04 #@! TO.C,Q1*
X152457761Y-84364019D02*
X152362523Y-84316400D01*
X152267285Y-84221161D01*
X152124428Y-84078304D01*
X152029190Y-84030685D01*
X151933952Y-84030685D01*
X151981571Y-84268780D02*
X151886333Y-84221161D01*
X151791095Y-84125923D01*
X151743476Y-83935447D01*
X151743476Y-83602114D01*
X151791095Y-83411638D01*
X151886333Y-83316400D01*
X151981571Y-83268780D01*
X152172047Y-83268780D01*
X152267285Y-83316400D01*
X152362523Y-83411638D01*
X152410142Y-83602114D01*
X152410142Y-83935447D01*
X152362523Y-84125923D01*
X152267285Y-84221161D01*
X152172047Y-84268780D01*
X151981571Y-84268780D01*
X153362523Y-84268780D02*
X152791095Y-84268780D01*
X153076809Y-84268780D02*
X153076809Y-83268780D01*
X152981571Y-83411638D01*
X152886333Y-83506876D01*
X152791095Y-83554495D01*
G04 #@! TO.C,Q2*
X139347761Y-98513619D02*
X139252523Y-98466000D01*
X139157285Y-98370761D01*
X139014428Y-98227904D01*
X138919190Y-98180285D01*
X138823952Y-98180285D01*
X138871571Y-98418380D02*
X138776333Y-98370761D01*
X138681095Y-98275523D01*
X138633476Y-98085047D01*
X138633476Y-97751714D01*
X138681095Y-97561238D01*
X138776333Y-97466000D01*
X138871571Y-97418380D01*
X139062047Y-97418380D01*
X139157285Y-97466000D01*
X139252523Y-97561238D01*
X139300142Y-97751714D01*
X139300142Y-98085047D01*
X139252523Y-98275523D01*
X139157285Y-98370761D01*
X139062047Y-98418380D01*
X138871571Y-98418380D01*
X139681095Y-97513619D02*
X139728714Y-97466000D01*
X139823952Y-97418380D01*
X140062047Y-97418380D01*
X140157285Y-97466000D01*
X140204904Y-97513619D01*
X140252523Y-97608857D01*
X140252523Y-97704095D01*
X140204904Y-97846952D01*
X139633476Y-98418380D01*
X140252523Y-98418380D01*
G04 #@! TO.C,Q3*
X133837761Y-98513619D02*
X133742523Y-98466000D01*
X133647285Y-98370761D01*
X133504428Y-98227904D01*
X133409190Y-98180285D01*
X133313952Y-98180285D01*
X133361571Y-98418380D02*
X133266333Y-98370761D01*
X133171095Y-98275523D01*
X133123476Y-98085047D01*
X133123476Y-97751714D01*
X133171095Y-97561238D01*
X133266333Y-97466000D01*
X133361571Y-97418380D01*
X133552047Y-97418380D01*
X133647285Y-97466000D01*
X133742523Y-97561238D01*
X133790142Y-97751714D01*
X133790142Y-98085047D01*
X133742523Y-98275523D01*
X133647285Y-98370761D01*
X133552047Y-98418380D01*
X133361571Y-98418380D01*
X134123476Y-97418380D02*
X134742523Y-97418380D01*
X134409190Y-97799333D01*
X134552047Y-97799333D01*
X134647285Y-97846952D01*
X134694904Y-97894571D01*
X134742523Y-97989809D01*
X134742523Y-98227904D01*
X134694904Y-98323142D01*
X134647285Y-98370761D01*
X134552047Y-98418380D01*
X134266333Y-98418380D01*
X134171095Y-98370761D01*
X134123476Y-98323142D01*
G04 #@! TO.C,Q4*
X162667761Y-75714019D02*
X162572523Y-75666400D01*
X162477285Y-75571161D01*
X162334428Y-75428304D01*
X162239190Y-75380685D01*
X162143952Y-75380685D01*
X162191571Y-75618780D02*
X162096333Y-75571161D01*
X162001095Y-75475923D01*
X161953476Y-75285447D01*
X161953476Y-74952114D01*
X162001095Y-74761638D01*
X162096333Y-74666400D01*
X162191571Y-74618780D01*
X162382047Y-74618780D01*
X162477285Y-74666400D01*
X162572523Y-74761638D01*
X162620142Y-74952114D01*
X162620142Y-75285447D01*
X162572523Y-75475923D01*
X162477285Y-75571161D01*
X162382047Y-75618780D01*
X162191571Y-75618780D01*
X163477285Y-74952114D02*
X163477285Y-75618780D01*
X163239190Y-74571161D02*
X163001095Y-75285447D01*
X163620142Y-75285447D01*
G04 #@! TO.C,Q5*
X128327761Y-98513619D02*
X128232523Y-98466000D01*
X128137285Y-98370761D01*
X127994428Y-98227904D01*
X127899190Y-98180285D01*
X127803952Y-98180285D01*
X127851571Y-98418380D02*
X127756333Y-98370761D01*
X127661095Y-98275523D01*
X127613476Y-98085047D01*
X127613476Y-97751714D01*
X127661095Y-97561238D01*
X127756333Y-97466000D01*
X127851571Y-97418380D01*
X128042047Y-97418380D01*
X128137285Y-97466000D01*
X128232523Y-97561238D01*
X128280142Y-97751714D01*
X128280142Y-98085047D01*
X128232523Y-98275523D01*
X128137285Y-98370761D01*
X128042047Y-98418380D01*
X127851571Y-98418380D01*
X129184904Y-97418380D02*
X128708714Y-97418380D01*
X128661095Y-97894571D01*
X128708714Y-97846952D01*
X128803952Y-97799333D01*
X129042047Y-97799333D01*
X129137285Y-97846952D01*
X129184904Y-97894571D01*
X129232523Y-97989809D01*
X129232523Y-98227904D01*
X129184904Y-98323142D01*
X129137285Y-98370761D01*
X129042047Y-98418380D01*
X128803952Y-98418380D01*
X128708714Y-98370761D01*
X128661095Y-98323142D01*
G04 #@! TO.C,Q6*
X145217761Y-95464019D02*
X145122523Y-95416400D01*
X145027285Y-95321161D01*
X144884428Y-95178304D01*
X144789190Y-95130685D01*
X144693952Y-95130685D01*
X144741571Y-95368780D02*
X144646333Y-95321161D01*
X144551095Y-95225923D01*
X144503476Y-95035447D01*
X144503476Y-94702114D01*
X144551095Y-94511638D01*
X144646333Y-94416400D01*
X144741571Y-94368780D01*
X144932047Y-94368780D01*
X145027285Y-94416400D01*
X145122523Y-94511638D01*
X145170142Y-94702114D01*
X145170142Y-95035447D01*
X145122523Y-95225923D01*
X145027285Y-95321161D01*
X144932047Y-95368780D01*
X144741571Y-95368780D01*
X146027285Y-94368780D02*
X145836809Y-94368780D01*
X145741571Y-94416400D01*
X145693952Y-94464019D01*
X145598714Y-94606876D01*
X145551095Y-94797352D01*
X145551095Y-95178304D01*
X145598714Y-95273542D01*
X145646333Y-95321161D01*
X145741571Y-95368780D01*
X145932047Y-95368780D01*
X146027285Y-95321161D01*
X146074904Y-95273542D01*
X146122523Y-95178304D01*
X146122523Y-94940209D01*
X146074904Y-94844971D01*
X146027285Y-94797352D01*
X145932047Y-94749733D01*
X145741571Y-94749733D01*
X145646333Y-94797352D01*
X145598714Y-94844971D01*
X145551095Y-94940209D01*
G04 #@! TO.C,R1*
X120086333Y-101428380D02*
X119753000Y-100952190D01*
X119514904Y-101428380D02*
X119514904Y-100428380D01*
X119895857Y-100428380D01*
X119991095Y-100476000D01*
X120038714Y-100523619D01*
X120086333Y-100618857D01*
X120086333Y-100761714D01*
X120038714Y-100856952D01*
X119991095Y-100904571D01*
X119895857Y-100952190D01*
X119514904Y-100952190D01*
X121038714Y-101428380D02*
X120467285Y-101428380D01*
X120753000Y-101428380D02*
X120753000Y-100428380D01*
X120657761Y-100571238D01*
X120562523Y-100666476D01*
X120467285Y-100714095D01*
G04 #@! TO.C,R2*
X130926333Y-82028780D02*
X130593000Y-81552590D01*
X130354904Y-82028780D02*
X130354904Y-81028780D01*
X130735857Y-81028780D01*
X130831095Y-81076400D01*
X130878714Y-81124019D01*
X130926333Y-81219257D01*
X130926333Y-81362114D01*
X130878714Y-81457352D01*
X130831095Y-81504971D01*
X130735857Y-81552590D01*
X130354904Y-81552590D01*
X131307285Y-81124019D02*
X131354904Y-81076400D01*
X131450142Y-81028780D01*
X131688238Y-81028780D01*
X131783476Y-81076400D01*
X131831095Y-81124019D01*
X131878714Y-81219257D01*
X131878714Y-81314495D01*
X131831095Y-81457352D01*
X131259666Y-82028780D01*
X131878714Y-82028780D01*
G04 #@! TO.C,R3*
X121356333Y-90628780D02*
X121023000Y-90152590D01*
X120784904Y-90628780D02*
X120784904Y-89628780D01*
X121165857Y-89628780D01*
X121261095Y-89676400D01*
X121308714Y-89724019D01*
X121356333Y-89819257D01*
X121356333Y-89962114D01*
X121308714Y-90057352D01*
X121261095Y-90104971D01*
X121165857Y-90152590D01*
X120784904Y-90152590D01*
X121689666Y-89628780D02*
X122308714Y-89628780D01*
X121975380Y-90009733D01*
X122118238Y-90009733D01*
X122213476Y-90057352D01*
X122261095Y-90104971D01*
X122308714Y-90200209D01*
X122308714Y-90438304D01*
X122261095Y-90533542D01*
X122213476Y-90581161D01*
X122118238Y-90628780D01*
X121832523Y-90628780D01*
X121737285Y-90581161D01*
X121689666Y-90533542D01*
G04 #@! TO.C,R4*
X130926333Y-79878780D02*
X130593000Y-79402590D01*
X130354904Y-79878780D02*
X130354904Y-78878780D01*
X130735857Y-78878780D01*
X130831095Y-78926400D01*
X130878714Y-78974019D01*
X130926333Y-79069257D01*
X130926333Y-79212114D01*
X130878714Y-79307352D01*
X130831095Y-79354971D01*
X130735857Y-79402590D01*
X130354904Y-79402590D01*
X131783476Y-79212114D02*
X131783476Y-79878780D01*
X131545380Y-78831161D02*
X131307285Y-79545447D01*
X131926333Y-79545447D01*
G04 #@! TO.C,R5*
X121356333Y-88478780D02*
X121023000Y-88002590D01*
X120784904Y-88478780D02*
X120784904Y-87478780D01*
X121165857Y-87478780D01*
X121261095Y-87526400D01*
X121308714Y-87574019D01*
X121356333Y-87669257D01*
X121356333Y-87812114D01*
X121308714Y-87907352D01*
X121261095Y-87954971D01*
X121165857Y-88002590D01*
X120784904Y-88002590D01*
X122261095Y-87478780D02*
X121784904Y-87478780D01*
X121737285Y-87954971D01*
X121784904Y-87907352D01*
X121880142Y-87859733D01*
X122118238Y-87859733D01*
X122213476Y-87907352D01*
X122261095Y-87954971D01*
X122308714Y-88050209D01*
X122308714Y-88288304D01*
X122261095Y-88383542D01*
X122213476Y-88431161D01*
X122118238Y-88478780D01*
X121880142Y-88478780D01*
X121784904Y-88431161D01*
X121737285Y-88383542D01*
G04 #@! TO.C,R6*
X140496333Y-77728780D02*
X140163000Y-77252590D01*
X139924904Y-77728780D02*
X139924904Y-76728780D01*
X140305857Y-76728780D01*
X140401095Y-76776400D01*
X140448714Y-76824019D01*
X140496333Y-76919257D01*
X140496333Y-77062114D01*
X140448714Y-77157352D01*
X140401095Y-77204971D01*
X140305857Y-77252590D01*
X139924904Y-77252590D01*
X141353476Y-76728780D02*
X141163000Y-76728780D01*
X141067761Y-76776400D01*
X141020142Y-76824019D01*
X140924904Y-76966876D01*
X140877285Y-77157352D01*
X140877285Y-77538304D01*
X140924904Y-77633542D01*
X140972523Y-77681161D01*
X141067761Y-77728780D01*
X141258238Y-77728780D01*
X141353476Y-77681161D01*
X141401095Y-77633542D01*
X141448714Y-77538304D01*
X141448714Y-77300209D01*
X141401095Y-77204971D01*
X141353476Y-77157352D01*
X141258238Y-77109733D01*
X141067761Y-77109733D01*
X140972523Y-77157352D01*
X140924904Y-77204971D01*
X140877285Y-77300209D01*
G04 #@! TO.C,R7*
X140496333Y-75578780D02*
X140163000Y-75102590D01*
X139924904Y-75578780D02*
X139924904Y-74578780D01*
X140305857Y-74578780D01*
X140401095Y-74626400D01*
X140448714Y-74674019D01*
X140496333Y-74769257D01*
X140496333Y-74912114D01*
X140448714Y-75007352D01*
X140401095Y-75054971D01*
X140305857Y-75102590D01*
X139924904Y-75102590D01*
X140829666Y-74578780D02*
X141496333Y-74578780D01*
X141067761Y-75578780D01*
G04 #@! TO.C,R8*
X121356333Y-75578780D02*
X121023000Y-75102590D01*
X120784904Y-75578780D02*
X120784904Y-74578780D01*
X121165857Y-74578780D01*
X121261095Y-74626400D01*
X121308714Y-74674019D01*
X121356333Y-74769257D01*
X121356333Y-74912114D01*
X121308714Y-75007352D01*
X121261095Y-75054971D01*
X121165857Y-75102590D01*
X120784904Y-75102590D01*
X121927761Y-75007352D02*
X121832523Y-74959733D01*
X121784904Y-74912114D01*
X121737285Y-74816876D01*
X121737285Y-74769257D01*
X121784904Y-74674019D01*
X121832523Y-74626400D01*
X121927761Y-74578780D01*
X122118238Y-74578780D01*
X122213476Y-74626400D01*
X122261095Y-74674019D01*
X122308714Y-74769257D01*
X122308714Y-74816876D01*
X122261095Y-74912114D01*
X122213476Y-74959733D01*
X122118238Y-75007352D01*
X121927761Y-75007352D01*
X121832523Y-75054971D01*
X121784904Y-75102590D01*
X121737285Y-75197828D01*
X121737285Y-75388304D01*
X121784904Y-75483542D01*
X121832523Y-75531161D01*
X121927761Y-75578780D01*
X122118238Y-75578780D01*
X122213476Y-75531161D01*
X122261095Y-75483542D01*
X122308714Y-75388304D01*
X122308714Y-75197828D01*
X122261095Y-75102590D01*
X122213476Y-75054971D01*
X122118238Y-75007352D01*
G04 #@! TO.C,R9*
X121356333Y-86328780D02*
X121023000Y-85852590D01*
X120784904Y-86328780D02*
X120784904Y-85328780D01*
X121165857Y-85328780D01*
X121261095Y-85376400D01*
X121308714Y-85424019D01*
X121356333Y-85519257D01*
X121356333Y-85662114D01*
X121308714Y-85757352D01*
X121261095Y-85804971D01*
X121165857Y-85852590D01*
X120784904Y-85852590D01*
X121832523Y-86328780D02*
X122023000Y-86328780D01*
X122118238Y-86281161D01*
X122165857Y-86233542D01*
X122261095Y-86090685D01*
X122308714Y-85900209D01*
X122308714Y-85519257D01*
X122261095Y-85424019D01*
X122213476Y-85376400D01*
X122118238Y-85328780D01*
X121927761Y-85328780D01*
X121832523Y-85376400D01*
X121784904Y-85424019D01*
X121737285Y-85519257D01*
X121737285Y-85757352D01*
X121784904Y-85852590D01*
X121832523Y-85900209D01*
X121927761Y-85947828D01*
X122118238Y-85947828D01*
X122213476Y-85900209D01*
X122261095Y-85852590D01*
X122308714Y-85757352D01*
G04 #@! TO.C,R10*
X120880142Y-84178780D02*
X120546809Y-83702590D01*
X120308714Y-84178780D02*
X120308714Y-83178780D01*
X120689666Y-83178780D01*
X120784904Y-83226400D01*
X120832523Y-83274019D01*
X120880142Y-83369257D01*
X120880142Y-83512114D01*
X120832523Y-83607352D01*
X120784904Y-83654971D01*
X120689666Y-83702590D01*
X120308714Y-83702590D01*
X121832523Y-84178780D02*
X121261095Y-84178780D01*
X121546809Y-84178780D02*
X121546809Y-83178780D01*
X121451571Y-83321638D01*
X121356333Y-83416876D01*
X121261095Y-83464495D01*
X122451571Y-83178780D02*
X122546809Y-83178780D01*
X122642047Y-83226400D01*
X122689666Y-83274019D01*
X122737285Y-83369257D01*
X122784904Y-83559733D01*
X122784904Y-83797828D01*
X122737285Y-83988304D01*
X122689666Y-84083542D01*
X122642047Y-84131161D01*
X122546809Y-84178780D01*
X122451571Y-84178780D01*
X122356333Y-84131161D01*
X122308714Y-84083542D01*
X122261095Y-83988304D01*
X122213476Y-83797828D01*
X122213476Y-83559733D01*
X122261095Y-83369257D01*
X122308714Y-83274019D01*
X122356333Y-83226400D01*
X122451571Y-83178780D01*
G04 #@! TO.C,R11*
X120880142Y-82028780D02*
X120546809Y-81552590D01*
X120308714Y-82028780D02*
X120308714Y-81028780D01*
X120689666Y-81028780D01*
X120784904Y-81076400D01*
X120832523Y-81124019D01*
X120880142Y-81219257D01*
X120880142Y-81362114D01*
X120832523Y-81457352D01*
X120784904Y-81504971D01*
X120689666Y-81552590D01*
X120308714Y-81552590D01*
X121832523Y-82028780D02*
X121261095Y-82028780D01*
X121546809Y-82028780D02*
X121546809Y-81028780D01*
X121451571Y-81171638D01*
X121356333Y-81266876D01*
X121261095Y-81314495D01*
X122784904Y-82028780D02*
X122213476Y-82028780D01*
X122499190Y-82028780D02*
X122499190Y-81028780D01*
X122403952Y-81171638D01*
X122308714Y-81266876D01*
X122213476Y-81314495D01*
G04 #@! TO.C,R12*
X130450142Y-77728780D02*
X130116809Y-77252590D01*
X129878714Y-77728780D02*
X129878714Y-76728780D01*
X130259666Y-76728780D01*
X130354904Y-76776400D01*
X130402523Y-76824019D01*
X130450142Y-76919257D01*
X130450142Y-77062114D01*
X130402523Y-77157352D01*
X130354904Y-77204971D01*
X130259666Y-77252590D01*
X129878714Y-77252590D01*
X131402523Y-77728780D02*
X130831095Y-77728780D01*
X131116809Y-77728780D02*
X131116809Y-76728780D01*
X131021571Y-76871638D01*
X130926333Y-76966876D01*
X130831095Y-77014495D01*
X131783476Y-76824019D02*
X131831095Y-76776400D01*
X131926333Y-76728780D01*
X132164428Y-76728780D01*
X132259666Y-76776400D01*
X132307285Y-76824019D01*
X132354904Y-76919257D01*
X132354904Y-77014495D01*
X132307285Y-77157352D01*
X131735857Y-77728780D01*
X132354904Y-77728780D01*
G04 #@! TO.C,R13*
X120880142Y-79878780D02*
X120546809Y-79402590D01*
X120308714Y-79878780D02*
X120308714Y-78878780D01*
X120689666Y-78878780D01*
X120784904Y-78926400D01*
X120832523Y-78974019D01*
X120880142Y-79069257D01*
X120880142Y-79212114D01*
X120832523Y-79307352D01*
X120784904Y-79354971D01*
X120689666Y-79402590D01*
X120308714Y-79402590D01*
X121832523Y-79878780D02*
X121261095Y-79878780D01*
X121546809Y-79878780D02*
X121546809Y-78878780D01*
X121451571Y-79021638D01*
X121356333Y-79116876D01*
X121261095Y-79164495D01*
X122165857Y-78878780D02*
X122784904Y-78878780D01*
X122451571Y-79259733D01*
X122594428Y-79259733D01*
X122689666Y-79307352D01*
X122737285Y-79354971D01*
X122784904Y-79450209D01*
X122784904Y-79688304D01*
X122737285Y-79783542D01*
X122689666Y-79831161D01*
X122594428Y-79878780D01*
X122308714Y-79878780D01*
X122213476Y-79831161D01*
X122165857Y-79783542D01*
G04 #@! TO.C,R14*
X130450142Y-75578780D02*
X130116809Y-75102590D01*
X129878714Y-75578780D02*
X129878714Y-74578780D01*
X130259666Y-74578780D01*
X130354904Y-74626400D01*
X130402523Y-74674019D01*
X130450142Y-74769257D01*
X130450142Y-74912114D01*
X130402523Y-75007352D01*
X130354904Y-75054971D01*
X130259666Y-75102590D01*
X129878714Y-75102590D01*
X131402523Y-75578780D02*
X130831095Y-75578780D01*
X131116809Y-75578780D02*
X131116809Y-74578780D01*
X131021571Y-74721638D01*
X130926333Y-74816876D01*
X130831095Y-74864495D01*
X132259666Y-74912114D02*
X132259666Y-75578780D01*
X132021571Y-74531161D02*
X131783476Y-75245447D01*
X132402523Y-75245447D01*
G04 #@! TO.C,R15*
X120880142Y-77728780D02*
X120546809Y-77252590D01*
X120308714Y-77728780D02*
X120308714Y-76728780D01*
X120689666Y-76728780D01*
X120784904Y-76776400D01*
X120832523Y-76824019D01*
X120880142Y-76919257D01*
X120880142Y-77062114D01*
X120832523Y-77157352D01*
X120784904Y-77204971D01*
X120689666Y-77252590D01*
X120308714Y-77252590D01*
X121832523Y-77728780D02*
X121261095Y-77728780D01*
X121546809Y-77728780D02*
X121546809Y-76728780D01*
X121451571Y-76871638D01*
X121356333Y-76966876D01*
X121261095Y-77014495D01*
X122737285Y-76728780D02*
X122261095Y-76728780D01*
X122213476Y-77204971D01*
X122261095Y-77157352D01*
X122356333Y-77109733D01*
X122594428Y-77109733D01*
X122689666Y-77157352D01*
X122737285Y-77204971D01*
X122784904Y-77300209D01*
X122784904Y-77538304D01*
X122737285Y-77633542D01*
X122689666Y-77681161D01*
X122594428Y-77728780D01*
X122356333Y-77728780D01*
X122261095Y-77681161D01*
X122213476Y-77633542D01*
G04 #@! TO.C,SW1*
X138374666Y-83471161D02*
X138517523Y-83518780D01*
X138755619Y-83518780D01*
X138850857Y-83471161D01*
X138898476Y-83423542D01*
X138946095Y-83328304D01*
X138946095Y-83233066D01*
X138898476Y-83137828D01*
X138850857Y-83090209D01*
X138755619Y-83042590D01*
X138565142Y-82994971D01*
X138469904Y-82947352D01*
X138422285Y-82899733D01*
X138374666Y-82804495D01*
X138374666Y-82709257D01*
X138422285Y-82614019D01*
X138469904Y-82566400D01*
X138565142Y-82518780D01*
X138803238Y-82518780D01*
X138946095Y-82566400D01*
X139279428Y-82518780D02*
X139517523Y-83518780D01*
X139708000Y-82804495D01*
X139898476Y-83518780D01*
X140136571Y-82518780D01*
X141041333Y-83518780D02*
X140469904Y-83518780D01*
X140755619Y-83518780D02*
X140755619Y-82518780D01*
X140660380Y-82661638D01*
X140565142Y-82756876D01*
X140469904Y-82804495D01*
G04 #@! TO.C,SW2*
X129444666Y-83471161D02*
X129587523Y-83518780D01*
X129825619Y-83518780D01*
X129920857Y-83471161D01*
X129968476Y-83423542D01*
X130016095Y-83328304D01*
X130016095Y-83233066D01*
X129968476Y-83137828D01*
X129920857Y-83090209D01*
X129825619Y-83042590D01*
X129635142Y-82994971D01*
X129539904Y-82947352D01*
X129492285Y-82899733D01*
X129444666Y-82804495D01*
X129444666Y-82709257D01*
X129492285Y-82614019D01*
X129539904Y-82566400D01*
X129635142Y-82518780D01*
X129873238Y-82518780D01*
X130016095Y-82566400D01*
X130349428Y-82518780D02*
X130587523Y-83518780D01*
X130778000Y-82804495D01*
X130968476Y-83518780D01*
X131206571Y-82518780D01*
X131539904Y-82614019D02*
X131587523Y-82566400D01*
X131682761Y-82518780D01*
X131920857Y-82518780D01*
X132016095Y-82566400D01*
X132063714Y-82614019D01*
X132111333Y-82709257D01*
X132111333Y-82804495D01*
X132063714Y-82947352D01*
X131492285Y-83518780D01*
X132111333Y-83518780D01*
G04 #@! TD*
M02*
