M48
;DRILL file {KiCad (5.0.2)-1} date 2019/10/03 0:01:29
;FORMAT={-:-/ absolute / metric / decimal}
FMAT,2
METRIC,TZ
T1C0.400
T2C0.600
T3C0.700
T4C0.750
T5C0.800
T6C0.900
T7C1.750
%
G90
G05
T1
X136.69Y-92.911
X137.941Y-93.185
X148.919Y-89.367
X153.856Y-94.229
X168.523Y-99.534
T2
X151.773Y-92.136
X153.023Y-92.136
T3
X136.853Y-77.046
X144.473Y-77.046
X117.713Y-85.646
X125.333Y-85.646
X127.283Y-79.196
X134.903Y-79.196
X127.283Y-81.346
X134.903Y-81.346
X117.713Y-102.896
X122.793Y-102.896
X117.713Y-83.496
X125.333Y-83.496
X117.713Y-77.046
X125.333Y-77.046
X117.713Y-79.196
X125.333Y-79.196
X136.853Y-79.196
X144.473Y-79.196
X117.713Y-81.346
X125.333Y-81.346
X127.283Y-83.496
X134.903Y-83.496
X117.713Y-89.946
X125.333Y-89.946
X117.713Y-87.796
X125.333Y-87.796
X127.283Y-77.046
X134.903Y-77.046
X117.713Y-92.096
X125.333Y-92.096
T4
X127.153Y-101.526
X128.423Y-101.526
X129.693Y-101.526
X144.043Y-98.476
X145.313Y-98.476
X146.583Y-98.476
X138.173Y-101.526
X139.443Y-101.526
X140.713Y-101.526
X132.663Y-101.526
X133.933Y-101.526
X135.203Y-101.526
X161.493Y-78.726
X162.763Y-78.726
X164.033Y-78.726
X151.283Y-87.376
X152.553Y-87.376
X153.823Y-87.376
T5
X127.533Y-95.996
X129.533Y-95.996
X146.033Y-92.946
X148.033Y-92.946
X156.243Y-78.746
X158.243Y-78.746
X146.033Y-87.396
X148.033Y-87.396
X138.793Y-95.996
X140.793Y-95.996
X133.163Y-95.996
X135.163Y-95.996
T6
X199.Y-97.
X201.54Y-97.
X167.5Y-82.
X170.04Y-82.
X199.Y-82.
X201.54Y-82.
X167.46Y-87.
X170.Y-87.
X199.Y-87.
X201.54Y-87.
X199.Y-92.
X201.54Y-92.
X167.5Y-97.
X170.04Y-97.
X167.5Y-92.
X170.04Y-92.
T7
X137.798Y-88.146
X141.678Y-88.146
X119.298Y-96.746
X123.178Y-96.746
X148.008Y-79.546
X151.888Y-79.546
X128.868Y-88.146
X132.748Y-88.146
T0
M30
